<svg class="banner"
  width="1200"
  height="700"
  viewbox="0 0 18 9"
  xmlns="http://www.w3.org/2000/svg"
  preserveAspectRatio="xMidYMid meet" x="0" y="0">
<defs>

  <style>
  .ilustration{
    fill: #f8f8f8;
  }
  </style>
  <symbol class="ilustration" id="soda" viewbox="0 0 200 200">
    <path fill-rule="evenodd" clip-rule="evenodd" d="M18.0148 3.12125C14.1735 5.02063 9.57213 8.62724 7.78668 11.1337C3.39108 17.3062 -0.628733 34.2578 0.0820463 43.6135C0.403427 47.8221 1.16352 58.1522 1.77398 66.5693C2.52046 76.896 3.84679 83.2556 5.8465 86.1243C7.91252 89.0864 9.13342 95.2998 9.8714 106.613C11.2777 128.206 13.8878 136.122 19.8274 136.809C22.9817 137.175 25.1566 136.164 27.0542 133.456C29.9161 129.37 30.7595 121.833 28.3551 121.833C26.0544 121.833 23.5139 111.134 24.7229 106.529C25.4473 103.771 24.9117 101.197 23.196 99.1989C21.147 96.8115 21.0279 95.8252 22.6705 94.81C24.0547 93.9547 24.6787 89.8363 24.4713 82.9274C24.1397 71.8696 25.0052 69.8801 30.62 68.7901C33.0363 68.3208 33.8917 66.9791 33.5771 64.1513C33.0993 59.8747 37.2551 55.6594 42.0384 55.571C43.6419 55.5404 45.7453 54.0372 46.7129 52.2313C47.6804 50.4238 50.0457 48.4445 51.9706 47.834C53.8955 47.2236 56.1741 44.877 57.0311 42.6188C59.0529 37.3033 68.5481 31.4351 72.1462 33.2766C73.6239 34.0333 75.8769 34.2799 77.154 33.8242C78.431 33.3685 80.0804 33.9755 80.8201 35.1726C81.8914 36.9054 83.3792 36.7744 88.1081 34.5299C91.3763 32.9791 95.5747 31.7106 97.4367 31.7106C99.3003 31.7106 101.259 30.5764 101.791 29.1888C102.342 27.7537 103.886 27.099 105.374 27.6703C106.813 28.2213 107.99 27.7792 107.99 26.6841C107.99 25.5907 109.328 24.8714 110.965 25.0891C114.924 25.6128 122.868 21.6678 124.048 18.5917C126.693 11.6999 120.199 4.34386 109.098 1.65888C107.085 1.17086 87.3395 0.524697 65.2187 0.22032C27.5865 -0.29831 24.5478 -0.111263 18.0148 3.12125ZM124.9 22.4704C122.567 25.2812 113.091 30.7073 113.091 29.233C113.091 28.7569 110.603 29.7636 107.564 31.4708C104.526 33.178 99.0742 35.1301 95.4523 35.8103C91.8304 36.4888 87.4925 37.9018 85.8125 38.951C83.5203 40.3827 82.1277 40.3334 80.2215 38.752C78.5432 37.3594 77.3189 37.2386 76.6047 38.3949C75.8837 39.5614 74.4163 39.4509 72.1955 38.065C68.0244 35.46 63.8838 37.7267 60.6088 44.4059C59.3335 47.0059 56.8474 49.5123 55.0824 49.9732C53.3191 50.434 51.8754 51.7892 51.8754 52.9829C51.8754 54.1766 50.5372 55.7427 48.8996 56.4637C46.7129 57.4278 47.9525 58.0961 53.5758 58.9837C58.2639 59.7234 62.1018 59.4938 63.4825 58.3886C65.0401 57.1439 66.0927 57.1337 66.8834 58.3546C68.3645 60.6416 79.2268 60.9154 81.8573 58.7321C83.0545 57.7373 84.272 57.6863 84.8399 58.6045C85.3687 59.4598 88.4975 59.8611 91.793 59.4972L97.787 58.8375L97.7479 70.3545C97.707 82.5262 95.1768 118.218 93.325 132.755C92.7197 137.503 92.6245 141.006 93.1125 140.538C94.7789 138.943 99.7357 99.7158 100.889 79.0046C101.744 63.6276 102.643 58.1403 104.407 57.5571C107.859 56.4127 105.5 93.9173 100.205 124.384C97.9298 137.477 93.7757 161.411 90.975 177.568C85.7394 207.783 84.5984 231.196 87.5215 248.515C88.3105 253.191 88.3173 257.691 87.5385 258.514C86.1543 259.976 84.8195 254.54 83.6224 242.564C83.2602 238.945 82.9201 240.486 82.7552 246.493L82.4831 256.376L75.2563 255.371C71.2807 254.819 65.7339 255.089 62.9282 255.972C58.2843 257.432 58.6363 257.589 66.8664 257.721C71.8367 257.801 77.523 258.733 79.5006 259.792C83.0034 261.666 83.0119 261.777 79.8713 264.074C76.9618 266.201 77.222 266.322 82.5409 265.307C90.1945 263.848 97.7206 260.02 98.8803 256.997C99.3854 255.679 98.1985 249.978 96.243 244.325C89.5076 224.864 91.3849 206.399 106.888 139.688C113.933 109.371 114.223 107.609 117.369 75.9217C121.13 38.048 122.865 33.1491 123.088 59.7676C123.315 86.8656 120.603 105.547 110.722 144.973C95.1751 207.004 93.4322 221.89 99.4653 241.137C105.333 259.854 103.823 262.756 85.8108 267.375C67.9819 271.947 37.3741 267.541 33.3424 259.823C32.3936 258.004 33.3441 252.232 36.0478 243.414C41.9143 224.276 40.8906 208.159 31.3512 169.445C27.3178 153.079 23.752 140.888 23.4272 142.354C23.1024 143.821 25.5324 156.493 28.8278 170.517C40.1407 218.678 40.1356 226.983 28.7717 254.271C19.1728 277.322 18.4552 280.575 21.8373 285.734C33.4529 303.463 97.9536 305.145 112.302 288.093C117.852 281.497 117.602 277.734 110.596 262.358C96.9844 232.492 96.1222 218.283 105.521 178.798C125.319 95.6296 126.694 87.2261 126.694 49.4494C126.694 29.636 126.46 28.0427 123.718 29.1701C116.704 32.0591 114.438 31.6153 120.11 28.4644C123.504 26.5821 126.732 23.8631 127.284 22.4245C128.568 19.0781 127.703 19.0951 124.9 22.4704ZM71.4303 65.7191C72.0085 66.6544 72.8179 67.4195 73.2311 67.4195C73.6443 67.4195 73.981 66.6544 73.981 65.7191C73.981 64.7839 73.1698 64.0187 72.1802 64.0187C71.1905 64.0187 70.8522 64.7839 71.4303 65.7191ZM58.6771 107.38C58.6771 108.782 59.4423 109.93 60.3775 109.93C61.3128 109.93 62.078 108.782 62.078 107.38C62.078 105.977 61.3128 104.829 60.3775 104.829C59.4423 104.829 58.6771 105.977 58.6771 107.38ZM70.5801 118.432C70.5801 119.368 71.3453 120.133 72.2805 120.133C73.2158 120.133 73.981 119.368 73.981 118.432C73.981 117.497 73.2158 116.732 72.2805 116.732C71.3453 116.732 70.5801 117.497 70.5801 118.432ZM64.1049 142.366C64.4399 143.371 65.4414 144.194 66.329 144.194C67.2167 144.194 68.2182 143.371 68.5532 142.366C68.8882 141.361 67.8883 140.538 66.329 140.538C64.7697 140.538 63.7699 141.361 64.1049 142.366ZM91.1196 146.631C91.2012 148.612 91.6042 149.015 92.1466 147.659C92.6381 146.432 92.5768 144.964 92.0123 144.4C91.4478 143.835 91.0464 144.838 91.1196 146.631ZM29.877 149.606C29.8191 150.387 31.3223 157.104 33.2183 164.533C43.9803 206.683 45.4801 223.636 39.9945 241.137C35.0429 256.931 35.3506 258.709 43.5858 262.005C47.4424 263.549 51.0133 264.397 51.52 263.89C52.0284 263.384 51.6526 262.969 50.6885 262.969C49.7227 262.969 46.9646 261.42 44.5567 259.527L40.1798 256.084L42.9856 247.199C44.8475 241.299 45.7913 232.313 45.793 220.458C45.7947 205.236 44.8815 199.218 39.5915 179.648C33.5975 157.469 30.1014 146.658 29.877 149.606ZM58.6771 172.846C58.6771 173.781 59.8249 174.547 61.2277 174.547C62.6306 174.547 63.7784 173.781 63.7784 172.846C63.7784 171.911 62.6306 171.146 61.2277 171.146C59.8249 171.146 58.6771 171.911 58.6771 172.846ZM62.078 206.855C62.078 207.79 62.8432 208.555 63.7784 208.555C64.7136 208.555 65.4788 207.79 65.4788 206.855C65.4788 205.919 64.7136 205.154 63.7784 205.154C62.8432 205.154 62.078 205.919 62.078 206.855Z" fill-opacity="0.3"/>
  </symbol>
  <symbol class="ilustration" id="cono" viewbox="0 0 222 300">
    <path fill-rule="evenodd" clip-rule="evenodd" d="M208.071 4.20461C202.181 11.9282 201.458 12.0891 170.443 12.5736C145.11 12.9692 143.399 13.095 139.653 14.8243C134.074 17.4019 131.465 20.2401 131.465 23.7322V26.5848L126.501 27.1036C117.197 28.076 109.043 32.6243 104.544 39.3503C102.451 42.4795 102.057 43.7964 102.364 46.643L102.738 50.1158L99.3248 50.6624C90.841 52.0186 83.1803 57.551 82.3186 62.9434C81.8366 65.9535 81.7528 66.0131 77.2934 66.4733C71.3846 67.0827 67.4767 69.5714 65.2713 74.1272C64.1531 76.4366 62.6166 78.1466 61.0927 78.7778C59.4791 79.4467 57.8604 81.3453 56.1949 84.5247C54.826 87.1359 52.1872 92.1016 50.3297 95.5593C45.9432 103.725 35.0033 128.707 32.5498 136.159C30.1088 143.573 30.103 149.213 32.5305 154.846L34.4182 159.227L30.6336 166.581C28.5514 170.625 24.3267 180.724 21.2445 189.023C18.1623 197.322 13.5452 209.204 10.9852 215.428C-0.949612 244.44 -1.11056 245.009 1.08814 250.272C6.14357 262.371 41.8492 286.463 70.4458 297.071C79.7796 300.534 84.1426 300.871 87.317 298.374C90.157 296.14 98.4539 284.803 120.619 252.865L138.694 226.824L145.065 226.784C155.094 226.721 155.857 225.982 174.075 198.659C182.527 185.983 190.598 173.159 192.011 170.163C193.424 167.166 195.697 163.522 197.063 162.065C198.437 160.598 199.631 158.323 199.738 156.966C199.862 155.395 201.181 153.228 203.415 150.926C208.59 145.593 211.574 133.563 209.544 126.214C208.651 122.981 208.698 122.865 211.99 120.046C220.62 112.659 221.911 98.5544 214.809 89.2507C212.201 85.8341 212.124 85.5533 213.651 85.0688C215.921 84.3487 219.116 79.8926 220.344 75.735C222.321 69.0391 219.072 60.018 213.322 56.2467L211.081 54.7765L214.232 52.7454C216.348 51.3816 218.212 49.0597 219.899 45.6841C222.259 40.9631 222.413 40.0637 222.399 31.0149C222.383 20.2033 220.863 13.5661 217.12 7.96328C215.889 6.11915 214.425 3.57258 213.868 2.30516C213.31 1.03774 212.5 0 212.066 0C211.632 0 209.835 1.89191 208.071 4.20461ZM216.569 17.1839C219.319 28.382 219.162 35.4693 216.036 41.181C213.413 45.9741 207.112 49.265 199.129 50.0102C196.03 50.3003 193.494 50.8334 193.494 51.1972C193.494 53.0027 199.117 55.6792 203.592 56.0028L208.35 56.3465L211.54 62.5478C215.356 69.967 215.711 74.4617 212.844 79.0997C210.615 82.7074 207.997 83.5926 204.661 81.8675C201.859 80.419 190.598 77.9563 186.774 77.9563C183.723 77.9563 184.095 79.1961 187.395 80.0242C192.461 81.2959 201.935 86.3571 205.639 89.7713C213.757 97.2551 215.172 104.566 210.385 114.291C207.931 119.276 207.424 119.82 205.651 119.375L203.665 118.876L204.856 123.354C207.119 131.855 205.884 138.055 200.769 143.866C196.506 148.708 193.389 150.045 186.361 150.045C180.07 150.045 164.37 145.351 152.84 140.024C146.135 136.926 122.759 123.265 123.277 122.748C123.428 122.597 128.004 123.598 133.446 124.974C147.176 128.443 157.863 129.916 169.354 129.922C181.172 129.928 187.848 128.74 187.442 126.704C187.223 125.604 186.478 125.403 183.834 125.736C182.001 125.966 174.089 126.15 166.252 126.144C150.032 126.131 142.301 124.8 123.92 118.852C100.764 111.358 84.9415 101.33 73.4903 86.8919C67.8254 79.7493 69.486 73.5941 78.0411 70.0207L81.1987 68.7013L82.0403 71.0232C84.5634 77.9882 87.6414 80.6839 101.288 87.876C119.625 97.5401 140.643 104.814 164.994 109.92C174.576 111.93 191.818 113.037 191.818 111.643C191.818 110.364 187.599 109.367 173.377 107.282C150.364 103.908 128.118 97.3976 112.891 89.5802C95.422 80.6127 87.2902 72.8238 88.1704 65.9041C88.6959 61.7699 93.3088 56.8863 99.417 53.9961L103.841 51.9038L107.804 55.2014C115.333 61.4681 128.817 66.9745 150.325 72.5647C158.163 74.6017 165.122 76.2714 165.791 76.2739C167.946 76.284 165.599 74.9403 159.975 72.9445C149.741 69.3132 122.422 57.2895 118.093 54.5116C115.714 52.9843 112.797 50.4637 111.611 48.9088C106.742 42.5239 111.558 33.5983 121.459 30.6578C127.069 28.9914 139.3 28.9411 147.703 30.5488C152.759 31.5161 169.374 36.0477 175.891 38.2363C176.709 38.5104 176.855 38.3788 176.31 37.8583C174.918 36.5288 159.598 31.102 152.347 29.3702C148.61 28.4775 142.949 27.4909 139.766 27.1774L133.979 26.6074V23.9276C133.979 20.531 136.626 17.9626 142.052 16.0925C145.534 14.893 150.074 14.6826 172.957 14.6608C202.167 14.634 206.623 14.0632 211.697 9.69592C212.981 8.59112 214.092 7.74869 214.168 7.82497C214.242 7.90125 215.323 12.1126 216.569 17.1839ZM163.161 17.3373C163.765 17.5796 164.489 17.5494 164.767 17.2711C165.045 16.9928 164.551 16.795 163.667 16.831C162.691 16.8713 162.492 17.0699 163.161 17.3373ZM139.428 20.1178C137.688 21.5009 136.409 22.6643 136.588 22.702C136.767 22.7406 137.668 22.8756 138.59 23.0021C139.512 23.1287 142.057 23.5168 144.248 23.8655C146.935 24.293 148.229 24.2042 148.229 23.5923C148.229 23.0776 147.595 22.9233 146.762 23.2352C145.431 23.7339 145.412 23.6384 146.553 22.2092C147.285 21.293 147.372 20.8973 146.762 21.2636C146.187 21.6098 145.715 21.4933 145.715 21.0054C145.715 20.5176 144.749 20.1178 143.57 20.1178C142.262 20.1178 141.641 20.4673 141.978 21.013C142.282 21.5059 143.059 21.7062 143.704 21.4589C144.349 21.2108 144.876 21.3743 144.876 21.8202C144.876 22.7699 143.463 22.7825 141.104 21.8563C139.573 21.2544 139.681 21.0423 142.362 19.4036C143.997 18.4036 144.697 17.6081 143.944 17.6064C143.201 17.6047 141.168 18.7347 139.428 20.1178ZM214.248 31.4558C213.631 34.9512 211.609 38.5113 210.736 37.6386C210.461 37.3645 210.845 35.6847 211.589 33.906C212.822 30.9554 212.822 30.7693 211.599 31.7844C210.862 32.3963 210.259 33.5589 210.259 34.3678C210.259 36.0653 207.987 38.2422 207.12 37.3754C206.799 37.0544 207.036 36.4819 207.649 36.1038C208.261 35.7249 208.42 35.2044 208.003 34.9471C207.07 34.3703 205.042 35.538 205.208 36.5573C205.274 36.9664 204.458 37.5473 203.393 37.8465C201.8 38.295 201.743 38.4065 203.07 38.4752C204.571 38.5532 204.542 38.72 202.655 40.8642L200.625 43.1693L203.183 40.8642C206.432 37.9362 209.347 37.8247 207.116 40.7141C206.77 41.1618 207.113 40.86 207.879 40.0436C209.268 38.5624 211.097 38.0452 211.097 39.1341C211.097 39.4501 210.249 40.6756 209.211 41.8583L207.325 44.0076L209.623 41.9824C212.641 39.3235 215.479 33.3578 215.125 30.4189C214.879 28.3694 214.771 28.4976 214.248 31.4558ZM169.029 30.7491C169.633 30.9914 170.356 30.9612 170.635 30.6829C170.913 30.4046 170.418 30.2068 169.535 30.2429C168.558 30.2831 168.36 30.4818 169.029 30.7491ZM173.22 31.5874C173.824 31.8296 174.548 31.7995 174.826 31.5212C175.104 31.2429 174.61 31.045 173.726 31.0811C172.75 31.1213 172.551 31.32 173.22 31.5874ZM182.597 34.6528C186.516 36.2136 190.781 37.9186 192.075 38.4417C193.369 38.9647 194.218 39.0511 193.96 38.6345C193.304 37.5724 181.95 32.9797 178.406 32.3418C176.792 32.0518 178.678 33.092 182.597 34.6528ZM137.542 33.2689C138.348 33.4801 139.669 33.4801 140.476 33.2689C141.282 33.0585 140.622 32.8858 139.009 32.8858C137.395 32.8858 136.735 33.0585 137.542 33.2689ZM146.134 34.4156C150.38 35.2941 153.811 35.2547 150.325 34.3678C148.942 34.0158 146.679 33.7266 145.296 33.7249C143.182 33.7232 143.315 33.833 146.134 34.4156ZM117.198 36.4836C116.614 37.186 115.926 37.5498 115.667 37.2908C115.126 36.7493 112.289 43.3814 112.257 45.2649C112.24 46.2549 112.415 46.2163 113.075 45.0822C113.858 43.7394 114.027 43.7536 115.565 45.2918C116.472 46.1987 117.215 47.3941 117.215 47.9473C117.215 48.7017 117.476 48.6892 118.262 47.8953C119.101 47.0479 119.017 46.6715 117.837 46.006C116.65 45.3362 116.537 44.819 117.256 43.3345C118.058 41.6739 118.029 41.6354 116.968 42.9464C116.321 43.7461 115.546 44.1551 115.246 43.855C114.386 42.995 114.609 40.2355 115.538 40.2355C115.999 40.2355 116.376 39.7938 116.376 39.2539C116.376 38.7141 117.001 37.5825 117.764 36.7392C118.526 35.8959 118.95 35.2061 118.704 35.2061C118.459 35.2061 117.781 35.7811 117.198 36.4836ZM153.94 35.7786C154.545 36.0208 155.268 35.9907 155.546 35.7124C155.825 35.4341 155.33 35.2362 154.447 35.2723C153.47 35.3125 153.271 35.5112 153.94 35.7786ZM158.97 39.1315C159.574 39.3738 160.298 39.3436 160.576 39.0653C160.854 38.787 160.36 38.5892 159.476 38.6253C158.5 38.6655 158.301 38.8641 158.97 39.1315ZM205.073 43.3227C205.677 43.565 206.401 43.5348 206.679 43.2565C206.957 42.9782 206.463 42.7804 205.579 42.8165C204.603 42.8567 204.404 43.0553 205.073 43.3227ZM188.828 51.0413C189.426 52.0086 192.656 53.9608 192.656 53.354C192.656 53.1603 191.667 52.3539 190.457 51.561C189.248 50.7688 188.514 50.535 188.828 51.0413ZM102.427 56.9358C99.1043 58.9618 98.4296 60.0423 100.088 60.6785C100.881 60.9828 101.139 61.5939 100.745 62.2334C100.35 62.8747 100.903 62.764 102.159 61.9518C104.052 60.7263 104.41 60.7313 106.508 62.013C108.364 63.1454 108.6 63.6266 107.765 64.5646C106.9 65.5378 106.964 65.5495 108.167 64.6417C108.954 64.0474 110.062 63.8496 110.631 64.2008C111.199 64.552 112.82 64.9242 114.23 65.0273C115.641 65.1304 120.002 66.5462 123.92 68.1732C127.839 69.8011 132.554 71.3535 134.398 71.6234C136.243 71.8933 133.973 70.8623 129.356 69.3316C121.996 66.8924 114.287 63.417 113.023 61.9686C112.222 61.0507 109.573 60.3558 110.095 61.2007C110.894 62.4933 108.6 62.1236 106.737 60.6592C105.109 59.3792 105.12 59.3591 107.156 59.9501L109.251 60.5586L107.156 58.6885C106.003 57.6592 105.155 56.4814 105.27 56.0707C105.553 55.0623 105.447 55.0941 102.427 56.9358ZM104.704 58.0691C104.6 59.0716 103.451 58.8771 103.09 57.7966C102.906 57.2434 103.208 56.9416 103.761 57.126C104.314 57.3105 104.738 57.7346 104.704 58.0691ZM102.501 60.4245C102.231 60.8612 101.653 60.9979 101.217 60.728C100.78 60.458 100.643 59.8805 100.913 59.4438C101.183 59.0071 101.761 58.8704 102.197 59.1403C102.634 59.4102 102.771 59.9878 102.501 60.4245ZM113.442 63.7062C113.727 64.1673 113.583 64.5445 113.122 64.5445C112.661 64.5445 112.051 64.1673 111.766 63.7062C111.481 63.2452 111.625 62.868 112.086 62.868C112.547 62.868 113.157 63.2452 113.442 63.7062ZM205.911 65.117C206.516 65.3592 207.239 65.3291 207.517 65.0508C207.796 64.7725 207.301 64.5746 206.417 64.6107C205.441 64.6509 205.242 64.8496 205.911 65.117ZM201.573 68.3165C201.265 69.1204 199.973 69.5739 197.991 69.5739C193.291 69.5739 195.131 70.4222 200.073 70.5337C202.519 70.589 204.391 71.0199 204.391 71.5278C204.391 73.1406 206.37 70.5354 206.501 68.7491C206.599 67.4372 206.114 67.0592 204.341 67.0592C203.083 67.0592 201.839 67.6242 201.573 68.3165ZM209.117 68.3165C209.383 69.0081 209.749 69.5739 209.93 69.5739C210.111 69.5739 210.259 69.0081 210.259 68.3165C210.259 67.625 209.894 67.0592 209.447 67.0592C209.001 67.0592 208.853 67.625 209.117 68.3165ZM204.811 68.7357C205.096 69.1967 204.53 69.5739 203.553 69.5739C202.577 69.5739 202.011 69.1967 202.296 68.7357C202.581 68.2746 203.147 67.8974 203.553 67.8974C203.96 67.8974 204.526 68.2746 204.811 68.7357ZM95.4203 72.4038C96.5729 73.7039 98.6475 75.5455 100.031 76.4978C103.019 78.5531 102.215 77.6713 97.0968 73.2781C94.5913 71.1272 94.0288 70.8338 95.4203 72.4038ZM178.249 71.8229C178.854 72.0652 179.577 72.035 179.855 71.7567C180.134 71.4784 179.639 71.2806 178.756 71.3166C177.779 71.3568 177.58 71.5555 178.249 71.8229ZM209.205 76.1222L206.894 80.8901L209.414 78.1524C210.806 76.6419 211.936 74.4818 211.936 73.3326C211.936 72.1875 211.841 71.2738 211.726 71.3023C211.611 71.3309 210.476 73.4994 209.205 76.1222ZM181.602 72.6611C182.207 72.9034 182.93 72.8732 183.208 72.5949C183.487 72.3166 182.992 72.1188 182.109 72.1548C181.132 72.1951 180.933 72.3937 181.602 72.6611ZM184.955 73.4994C185.56 73.7416 186.283 73.7115 186.561 73.4332C186.84 73.1549 186.345 72.957 185.461 72.9931C184.485 73.0333 184.286 73.232 184.955 73.4994ZM74.1751 75.2982C72.305 77.3645 72.4165 78.5582 74.9572 83.6563C77.5708 88.902 80.8559 91.8342 82.5458 90.4318C83.1728 89.9121 83.6732 89.0613 83.6598 88.5416C83.6455 88.0211 83.2449 88.2641 82.7696 89.0806C82.2943 89.897 81.5558 90.3488 81.1283 90.0848C80.6891 89.8132 80.9338 88.6195 81.6899 87.3429L83.0286 85.0813L81.3295 86.9766L79.6295 88.871L77.9396 86.7226L76.2489 84.5742L77.9606 81.4744L79.6714 78.3754L77.9246 80.471C76.9639 81.6236 76.1642 82.9438 76.1466 83.4049C76.1156 84.2364 74.502 82.1609 74.4769 81.2581C74.4702 80.9991 75.1944 80.0033 76.0863 79.046C77.098 77.9597 77.5348 76.6377 77.2464 75.5346C76.6789 73.3636 75.9748 73.3099 74.1751 75.2982ZM188.308 74.3376C188.913 74.5799 189.636 74.5497 189.914 74.2714C190.193 73.9931 189.698 73.7953 188.814 73.8313C187.838 73.8716 187.639 74.0702 188.308 74.3376ZM197.024 75.1071C196.118 76.0904 196.321 76.2781 198.282 76.2672C199.567 76.2597 200.242 75.973 199.781 75.6285C199.32 75.2848 198.754 74.7626 198.524 74.4684C198.293 74.175 197.618 74.4617 197.024 75.1071ZM75.4224 78.0787C74.4953 79.1617 73.9488 79.3436 73.7166 78.6462C73.5288 78.0829 73.8088 77.476 74.3386 77.3C74.8683 77.1231 75.3084 76.3494 75.3151 75.5816C75.326 74.465 75.4744 74.4156 76.0569 75.3351C76.5255 76.0736 76.2975 77.056 75.4224 78.0787ZM192.499 75.1759C193.104 75.4181 193.827 75.3879 194.105 75.1096C194.384 74.8313 193.889 74.6335 193.006 74.6696C192.029 74.7098 191.83 74.9085 192.499 75.1759ZM203.066 75.372C202.873 75.564 202.715 75.9831 202.715 76.3033C202.715 77.056 206.805 76.2832 207.332 75.4307C207.736 74.7769 203.72 74.7215 203.066 75.372ZM102.964 78.3167C102.964 78.5473 103.719 79.1391 104.641 79.6328C105.563 80.1265 106.317 80.3411 106.317 80.1106C106.317 79.8801 105.563 79.2883 104.641 78.7945C103.719 78.3008 102.964 78.0862 102.964 78.3167ZM63.9243 84.2071C65.5848 93.0605 84.7176 107.089 109.005 117.263C114.743 119.667 121.278 123.223 125.597 126.293C147.18 141.634 166.401 151.236 183.515 155.228C190.697 156.903 191.136 157.118 188.897 157.864C182.705 159.929 162.216 154.136 136.284 142.991C130.785 140.627 132.901 142.362 139.637 145.739C155.242 153.563 172.84 160.541 187.208 164.603C188.13 164.864 186.055 164.929 182.597 164.748C179.139 164.567 173.875 163.652 170.898 162.714C167.921 161.777 165.34 161.156 165.161 161.333C164.6 161.895 178.045 165.866 182.514 166.458C184.865 166.77 186.787 167.26 186.785 167.547C186.783 167.832 185.536 170.142 184.013 172.677C182.219 175.665 180.597 177.382 179.406 177.556C177.127 177.888 177.114 177.381 179.313 173.824C180.272 172.272 180.869 171.001 180.638 171.001C180.408 171.001 179.404 172.321 178.406 173.935C176.724 176.657 174.215 177.926 174.215 176.056C174.215 175.61 173.712 175.438 173.097 175.673C171.115 176.434 171.828 178.288 173.947 177.883C175.528 177.581 175.807 177.788 175.367 178.936C174.93 180.076 174.208 180.25 171.792 179.799C167.979 179.087 167.796 178.884 169.342 177.083C172.019 173.967 171.872 173.237 169.13 176.03C167.547 177.644 166.347 179.123 166.464 179.316C166.581 179.51 166.098 180.642 165.392 181.831L164.107 183.994L165.893 181.793C167.512 179.799 167.926 179.68 170.319 180.519C171.77 181.029 173.079 181.512 173.227 181.592C173.845 181.928 169.525 187.746 168.65 187.756C168.125 187.761 167.748 188.425 167.812 189.233C167.886 190.174 167.231 190.798 165.979 190.975C164.07 191.246 164.059 191.208 165.447 189.089C166.823 186.989 166.811 186.927 165.001 186.927C163.697 186.927 163.282 186.554 163.616 185.683C164.011 184.653 163.819 184.609 162.504 185.43C161.629 185.976 160.949 186.631 160.992 186.885C161.282 188.614 159.58 190.279 157.98 189.831C156.615 189.451 156.481 189.531 157.411 190.171C158.421 190.866 158.448 191.343 157.572 192.95C155.31 197.099 153.476 198.689 151.709 198.035C150.094 197.436 150.183 197.126 153.52 191.784C155.451 188.692 157.525 186.146 158.128 186.126C158.732 186.106 158.991 185.71 158.704 185.245C158.417 184.781 158.997 183.178 159.992 181.683L161.801 178.964L159.416 181.696C158.104 183.198 156.465 184.43 155.774 184.433C154.851 184.437 154.79 184.612 155.545 185.092C156.848 185.92 149.635 196.986 147.793 196.986C147.111 196.986 146.553 196.679 146.553 196.303C146.553 195.928 149.024 191.735 152.045 186.986C155.065 182.238 157.416 178.232 157.268 178.084C157.121 177.937 154.255 181.965 150.898 187.036C146.516 193.658 144.394 196.173 143.369 195.962C142.502 195.783 142.033 195.023 142.173 194.022C142.383 192.522 142.324 192.505 141.512 193.827C140.671 195.195 140.373 195.184 136.302 193.638C130.695 191.507 130.164 192.032 135.629 194.302C138.625 195.547 139.695 196.405 139.357 197.29C138.975 198.284 138.384 198.358 136.387 197.662C135.015 197.183 133.698 196.989 133.457 197.229C133.217 197.468 134.18 197.919 135.595 198.23C137.012 198.541 138.171 198.982 138.171 199.209C138.171 199.436 137.191 201.292 135.995 203.333C134.799 205.375 134.009 207.045 134.239 207.045C134.47 207.045 135.653 205.348 136.869 203.273C138.085 201.199 139.429 199.501 139.856 199.501C140.283 199.501 140.43 198.974 140.182 198.328C139.601 196.815 140.686 196.206 142.674 196.929C144.016 197.417 144.078 197.68 143.093 198.75C142.461 199.438 141.073 201.68 140.009 203.733C138.068 207.477 139.285 206.677 142.362 202.185C143.239 200.905 143.973 200.576 144.788 201.097C145.756 201.717 145.635 202.401 144.085 205.074C142.275 208.197 142.272 208.236 143.997 206.282C144.979 205.172 146.084 203.722 146.452 203.064C146.822 202.404 147.94 201.992 148.938 202.15C150.662 202.421 150.582 202.686 147.324 207.464C145.439 210.231 143.584 213.049 143.202 213.726C142.601 214.791 141.786 214.723 137.196 213.223C133.636 212.06 131.973 211.1 132.153 210.314C132.359 209.419 132.187 209.372 131.429 210.116C130.445 211.083 124.315 208.87 113.831 203.764C111.774 202.761 110.789 202.499 111.645 203.183C112.5 203.867 116.838 206.014 121.285 207.956C125.731 209.898 129.496 211.81 129.65 212.205C129.805 212.6 130.268 212.715 130.681 212.46C131.092 212.205 132.286 212.468 133.333 213.044C134.38 213.619 135.802 214.174 136.494 214.278C138.991 214.651 149.886 218.242 149.547 218.58C149.357 218.771 147.756 219.258 145.99 219.663C141.836 220.615 134.734 219.493 121.185 215.742C115.301 214.113 110.02 212.941 109.45 213.135C108.171 213.573 114.957 217.061 122.155 219.667C126.345 221.185 127.169 221.744 125.927 222.231C123.327 223.252 120.129 223.053 116.807 221.665C115.087 220.947 113.507 220.532 113.296 220.744C113.085 220.955 114.256 221.572 115.901 222.115C119.479 223.296 119.727 224.407 116.589 225.194C114.536 225.709 114.957 225.989 120.479 227.775C125.111 229.275 126.904 229.537 127.6 228.82C128.287 228.112 128.201 227.906 127.273 228.031C126.582 228.124 125.262 228.15 124.34 228.088C122.941 227.995 122.872 227.84 123.92 227.163C125.489 226.15 128.716 226.079 129.09 227.051C129.243 227.45 130.123 227.476 131.045 227.109C132.575 226.501 132.538 226.431 130.626 226.316C128.668 226.197 128.718 226.107 131.372 224.948C135.617 223.098 136.347 224.602 133.324 228.974C128.967 235.271 125.843 238.866 125.247 238.269C124.93 237.951 124.913 238.325 125.21 239.1C125.594 240.1 124.941 241.026 122.949 242.307C121.409 243.297 120.781 243.899 121.556 243.647C122.329 243.395 118.216 249.583 112.415 257.398C106.613 265.214 101.699 271.441 101.494 271.237C101.289 271.032 103.717 267.35 106.891 263.054C114.525 252.718 116.562 249.795 116.136 249.795C115.94 249.795 112.473 254.133 108.431 259.435C104.389 264.737 100.773 269.075 100.396 269.075C98.4832 269.075 98.9619 266.948 101.719 263.191C103.405 260.895 104.586 259.016 104.345 259.016C104.104 259.016 102.679 260.725 101.179 262.815C98.9384 265.934 98.3172 266.375 97.7037 265.279C97.2929 264.544 97.1571 263.42 97.4027 262.78C97.6852 262.045 97.4304 261.777 96.7103 262.053C96.0423 262.31 95.3356 261.746 95.0003 260.69C94.686 259.7 94.261 259.058 94.0548 259.263C93.8494 259.47 94.1252 260.612 94.6676 261.802C95.5762 263.797 95.2526 264.504 90.5803 270.768C86.2089 276.628 85.3916 277.362 84.6699 276.073C84.0412 274.949 84.2683 273.943 85.5835 272.035L87.3355 269.494L85.234 271.393L83.1317 273.29L80.954 268.244L78.777 263.197L81.021 261.891C82.3161 261.139 82.5558 260.812 81.5893 261.12C80.6673 261.414 79.5868 261.721 79.1878 261.802C78.171 262.009 68.3896 236.247 69.1951 235.486C69.5572 235.144 72.683 234.042 76.1408 233.04C82.8023 231.107 97.8797 225.315 100.28 223.766C101.951 222.688 102.225 222.604 90.9977 226.624C85.0957 228.738 83.503 229.037 82.9414 228.14C82.4008 227.277 82.1459 227.384 81.8257 228.611C81.5273 229.749 79.6497 230.722 75.2128 232.037C71.8046 233.047 68.7634 233.873 68.4558 233.871C68.1473 233.87 67.071 231.393 66.0643 228.367C65.0567 225.341 64.0827 223.015 63.8983 223.2C63.7139 223.384 64.3182 225.73 65.2411 228.414C66.1649 231.098 66.9201 233.576 66.9201 233.922C66.9201 234.268 63.314 235.42 58.9066 236.483C49.7823 238.682 50.1352 238.846 48.5225 231.641C47.955 229.106 47.3154 227.209 47.1 227.425C46.8845 227.64 47.3162 230.162 48.0597 233.031C48.8033 235.899 49.2744 238.382 49.1075 238.55C48.7681 238.888 37.0805 241.413 35.8508 241.413C35.4199 241.413 35.0159 240.565 34.953 239.527C34.8399 237.662 34.8348 237.661 34.4844 239.456C34.0452 241.709 33.3109 241.992 26.061 242.706L20.2369 243.281L19.6719 237.195C19.3609 233.848 19.2411 230.974 19.4062 230.809C20.0894 230.125 29.5673 228.741 30.9999 229.114C31.8532 229.338 32.5523 229.239 32.5523 228.896C32.5523 228.551 35.2171 227.793 38.4736 227.212C41.731 226.629 44.229 225.986 44.0245 225.782C43.8208 225.579 39.1342 226.183 33.6093 227.125C20.7323 229.323 19.656 229.326 20.2218 227.162C20.4632 226.239 20.3182 225.695 19.9008 225.954C19.4825 226.212 19.1405 225.207 19.1405 223.719C19.1405 219.776 18.148 221.398 18.0047 225.575C17.9359 227.572 17.4254 229.273 16.8345 229.469C16.1488 229.697 15.9535 229.286 16.2695 228.281C16.7205 226.846 16.6895 226.841 15.8093 228.211C15.2904 229.017 13.9166 229.678 12.7556 229.678C10.3893 229.678 10.4354 229.163 13.3952 222.471C14.6534 219.627 16.0474 218.185 19.3928 216.267C24.3309 213.434 24.1381 212.879 19.1069 215.444C17.2813 216.377 15.7875 216.988 15.7875 216.807C15.7875 216.624 16.7163 214.374 17.8521 211.806C19.656 207.727 22.7541 204.512 23.838 205.595C24.0366 205.795 25.5631 204.672 27.2287 203.101C28.8942 201.53 30.7426 200.431 31.3352 200.658C31.9287 200.886 32.6244 200.522 32.8817 199.851C33.1399 199.179 34.6957 197.836 36.3403 196.866C37.9841 195.896 39.1576 194.93 38.9472 194.72C38.7377 194.509 37.5893 194.977 36.3973 195.758C35.2045 196.54 34.2305 196.853 34.2321 196.454C34.2405 194.369 38.0545 190.021 42.5575 186.964C45.3531 185.065 47.6406 183.316 47.6406 183.075C47.6406 182.549 46.6691 183.098 41.9238 186.313C36.9933 189.652 36.4837 188.534 41.0043 184.296C43.483 181.973 43.9038 181.34 42.2767 182.379C39.85 183.929 39.8483 183.928 40.7989 182.151C41.3228 181.172 43.0764 179.553 44.6959 178.552C48.2961 176.327 48.5761 175.504 45.1259 177.288C42.4067 178.693 41.892 178.214 43.8258 176.077C44.5735 175.251 44.7705 174.297 44.3371 173.595C43.7948 172.718 43.5022 172.866 43.0664 174.242C42.7545 175.223 40.7905 177.202 38.7025 178.639C35.1291 181.098 34.9656 181.135 35.9296 179.269C37.2347 176.742 40.0873 173.593 42.0085 172.557C44.2282 171.361 49.7211 176.593 48.2408 178.493C47.3732 179.607 47.4151 179.652 48.5174 178.793C49.556 177.986 50.3071 178.11 52.2895 179.417C59.1773 183.957 57.3206 179.599 47.5928 168.39C41.5198 161.394 36.0444 152.98 36.9648 152.058C37.1492 151.875 38.472 153.327 39.9045 155.286C42.3362 158.61 45.9139 163.02 47.4093 164.536C52.1453 169.334 73.0502 185.196 71.647 182.924C71.331 182.414 67.1506 178.968 62.3559 175.267C57.562 171.566 53.3834 168.124 53.0707 167.618C51.6541 165.327 53.6307 166.42 59.3416 171.086C65.7961 176.359 79.482 185.642 84.5232 188.166C88.7705 190.291 86.996 188.871 76.1408 181.455C70.8389 177.833 64.1162 173.001 61.2025 170.717C56.5687 167.084 55.9643 166.289 56.3893 164.381L56.8747 162.199L55.7305 164.199C54.0322 167.165 53.1646 164.877 54.7933 161.727C55.5377 160.287 55.9811 158.945 55.7783 158.742C55.5762 158.539 54.9367 159.517 54.3574 160.915C53.1202 163.903 53.0892 163.912 50.945 161.915C49.3003 160.382 49.3029 160.345 51.4085 155.584C54.033 149.648 55.8151 150.059 53.4521 156.055C52.5267 158.402 51.9332 160.484 52.1311 160.683C52.3297 160.882 53.1495 159.323 53.9526 157.221C55.5435 153.055 57.4011 151.939 56.4774 155.703C55.9685 157.781 56.0239 157.858 57.0432 156.488C58.096 155.073 58.6316 155.348 64.7818 160.461C72.0351 166.491 80.9607 172.793 87.457 176.47C93.5577 179.924 91.7597 178.398 79.0637 169.346C65.045 159.352 58.6316 154.146 58.5788 152.72C58.5562 152.116 58.1605 151.856 57.6995 152.141C57.2385 152.426 56.8613 151.882 56.8613 150.933C56.8613 149.984 57.0633 149.207 57.3097 149.207C57.557 149.207 61.423 152.161 65.9017 155.771C70.3804 159.382 76.497 163.987 79.4937 166.007C85.2021 169.853 96.3625 176.206 96.7422 175.826C96.8637 175.704 92.9994 173.154 88.1536 170.159C78.8122 164.386 66.4273 155.378 59.5042 149.323L55.3239 145.668L56.9518 141.87C57.847 139.782 58.4221 137.914 58.2284 137.721C58.0348 137.527 57.2192 139.092 56.4145 141.199C55.2778 144.175 54.7095 144.826 53.8612 144.122C53.261 143.624 52.9718 142.584 53.2183 141.811C53.5485 140.774 53.4614 140.69 52.8847 141.492C52.2526 142.372 51.9064 142.343 51.0766 141.343C50.2576 140.357 50.3272 139.57 51.4219 137.454C52.1763 135.994 52.6281 134.636 52.4253 134.433C52.2233 134.23 51.5837 135.208 51.0045 136.606C50.4261 138.004 49.6088 139.148 49.1889 139.148C47.499 139.148 47.5526 136.37 49.328 131.997C50.8855 128.159 51.4052 127.549 52.4085 128.381C53.1923 129.032 53.4304 130.141 53.0875 131.542C52.5795 133.619 52.6064 133.637 53.8143 132.023L55.0691 130.346L55.7556 132.023C56.1328 132.945 57.008 133.699 57.6995 133.699C58.4799 133.699 58.8638 134.335 58.7121 135.376C58.5403 136.556 58.6844 136.733 59.1999 135.973C59.7448 135.171 63.0315 137.178 72.0183 143.8C83.9154 152.567 97.7715 161.385 98.5033 160.653C98.7087 160.447 93.3197 156.767 86.5274 152.473C75.839 145.717 65.9545 138.54 57.4899 131.392C56.2225 130.321 55.1848 128.988 55.1848 128.428C55.1848 127.055 56.0331 127.151 57.6291 128.706C64.8874 135.778 89.2651 152.668 102.545 159.826C110.807 164.279 125.057 171.012 126.159 170.982C126.542 170.972 119.687 167.27 110.928 162.756C92.81 153.418 84.2382 148.26 72.6076 139.696C67.2865 135.777 64.4314 133.118 64.3685 132.023C64.3157 131.101 64.086 130.808 63.8572 131.373C63.3383 132.655 58.5637 129.351 58.8873 127.934C59.0046 127.417 58.9376 127.292 58.7381 127.657C58.2159 128.61 56.0775 126.643 56.355 125.465C56.4824 124.923 56.4279 124.764 56.2334 125.112C56.039 125.461 55.4765 125.497 54.9836 125.193C54.4538 124.865 54.3323 125.034 54.686 125.606C55.6567 127.178 54.3868 128.49 53.0045 127.342C52.2811 126.742 52.0976 125.982 52.5385 125.415C52.9391 124.9 53.4664 123.724 53.7112 122.802C53.9559 121.88 54.4119 120.371 54.7237 119.449C55.0364 118.527 54.676 118.836 53.9241 120.136L52.5561 122.498L50.3951 120.337L48.2341 118.176L50.5468 112.735C51.8184 109.743 53.1529 107.295 53.5133 107.295C54.427 107.295 55.2921 109.796 54.7061 110.744C54.4396 111.175 54.7212 111.424 55.3323 111.297C56.5126 111.053 56.6634 113.235 55.6643 116.096C55.3415 117.018 55.6928 116.71 56.4447 115.411C57.5226 113.55 58.0549 113.252 58.9636 114.006C59.5964 114.531 59.9124 115.594 59.666 116.367C59.3835 117.253 59.4791 117.422 59.9259 116.824C60.407 116.179 63.3165 118.023 69.0157 122.587C78.0738 129.84 88.8032 137.602 94.1629 140.781C99.6165 144.015 96.5712 141.595 84.3798 133.008C68.3267 121.7 58.5377 113.517 58.5377 111.405C58.5377 109.818 60.371 109.808 60.7851 111.392C61.0374 112.355 61.5143 112.976 61.8454 112.771C62.1774 112.566 65.2462 114.691 68.6662 117.494C94.6273 138.766 126.724 158.895 151.854 169.664C164.503 175.084 160.658 172.474 145.091 165.072C120.236 153.255 103.784 143.215 80.7511 125.807C68.1884 116.313 59.7834 108.604 57.044 104.062C55.4522 101.424 55.4245 101.009 56.5947 97.3565C57.2812 95.2157 57.9677 93.0438 58.1203 92.5299C58.2729 92.0161 60.9753 94.0195 64.1263 96.9818C72.3972 104.76 85.5785 115.303 93.3247 120.338C100.784 125.186 112.133 131.097 112.767 130.464C112.991 130.238 106.957 125.897 99.3558 120.816C77.0628 105.914 66.0542 95.8485 62.3475 86.9766C61.1304 84.0646 61.314 81.3093 62.7256 81.3093C63.086 81.3093 63.625 82.6136 63.9243 84.2071ZM79.4552 83.8961C78.9405 84.8575 78.6773 85.8022 78.8709 85.995C79.0637 86.1878 79.6522 85.4015 80.1777 84.2464C81.3328 81.7116 80.7704 81.4383 79.4552 83.8961ZM120.567 87.5961C121.72 88.2549 123.04 88.7939 123.501 88.7939C123.962 88.7939 123.397 88.2549 122.244 87.5961C121.091 86.9372 119.771 86.3982 119.31 86.3982C118.849 86.3982 119.415 86.9372 120.567 87.5961ZM124.759 89.1099C124.759 89.7453 136.518 94.1377 136.981 93.675C137.196 93.4595 135.006 92.4243 132.113 91.374C129.221 90.3229 126.383 89.286 125.806 89.0688C125.231 88.8517 124.759 88.8702 124.759 89.1099ZM85.5509 94.3682C86.3472 95.1989 87.1787 95.6985 87.3992 95.478C87.6196 95.2576 86.9683 94.5778 85.9524 93.9667C84.1862 92.9063 84.1686 92.9247 85.5509 94.3682ZM149.906 97.9324C150.597 98.3599 152.106 98.9618 153.259 99.2702C154.715 99.66 154.971 99.5938 154.097 99.054C153.406 98.6265 151.897 98.0246 150.744 97.7161C149.288 97.3263 149.032 97.3926 149.906 97.9324ZM208.454 102.105C206.219 104.392 206.179 106.68 208.373 106.86C210.028 106.995 210.259 106.621 210.259 103.802C210.259 100.154 210.313 100.205 208.454 102.105ZM61.4372 103.16C61.1329 103.651 61.0642 104.233 61.2838 104.453C61.5034 104.673 61.9066 104.27 62.1799 103.559C62.7465 102.082 62.2637 101.822 61.4372 103.16ZM56.246 107.084C56.0037 107.716 56.2954 108.095 56.9183 107.958C57.5235 107.824 58.1631 108.374 58.3399 109.181C58.8554 111.54 57.1672 110.871 55.3466 107.995C53.4848 105.055 53.7212 101.928 55.6098 104.511C56.1957 105.311 56.4815 106.47 56.246 107.084ZM209.421 104.361C209.421 105.052 209.044 105.618 208.583 105.618C208.122 105.618 207.744 105.052 207.744 104.361C207.744 103.669 208.122 103.103 208.583 103.103C209.044 103.103 209.421 103.669 209.421 104.361ZM206.081 108.7C206.074 109.243 205.407 109.859 204.601 110.07C203.795 110.281 204.549 110.497 206.278 110.55C208.007 110.604 209.421 110.248 209.421 109.76C209.421 109.272 209.002 109.131 208.489 109.448C207.977 109.765 207.228 109.504 206.826 108.869C206.357 108.13 206.089 108.068 206.081 108.7ZM200.882 109.544C201.486 109.786 202.21 109.756 202.488 109.477C202.766 109.199 202.272 109.001 201.388 109.037C200.411 109.078 200.213 109.276 200.882 109.544ZM52.8059 114.456C51.4018 117.538 51.67 118.196 53.1881 115.394C53.8972 114.084 54.3206 112.857 54.1294 112.665C53.9375 112.474 53.3423 113.28 52.8059 114.456ZM131.308 115.411C131.912 115.654 132.636 115.623 132.914 115.345C133.192 115.067 132.698 114.869 131.814 114.905C130.838 114.945 130.639 115.144 131.308 115.411ZM134.661 116.25C135.265 116.492 135.989 116.462 136.267 116.183C136.545 115.905 136.051 115.707 135.167 115.743C134.191 115.784 133.992 115.982 134.661 116.25ZM138.014 117.088C138.618 117.33 139.342 117.3 139.62 117.022C139.898 116.743 139.404 116.546 138.52 116.582C137.544 116.622 137.345 116.82 138.014 117.088ZM142.781 118.183C145.991 119.24 161.518 121.569 164.682 121.468C166.78 121.402 155.242 119.39 144.038 117.868C140.818 117.431 140.634 117.477 142.781 118.183ZM163.108 117.908C163.685 118.142 164.628 118.142 165.204 117.908C165.78 117.676 165.309 117.486 164.156 117.486C163.003 117.486 162.532 117.676 163.108 117.908ZM51.8318 123.786C51.8318 124.397 51.4546 124.898 50.9936 124.898C50.5326 124.898 50.1553 124.08 50.1553 123.081C50.1553 122.083 49.9072 121.514 49.6038 121.817C48.8142 122.606 46.7219 120.677 47.3196 119.71C47.9307 118.721 51.8318 122.244 51.8318 123.786ZM57.3843 121.158C56.5754 123.266 56.8135 123.81 57.8018 122.111C58.2913 121.269 58.5151 120.404 58.2988 120.189C58.0834 119.972 57.671 120.409 57.3843 121.158ZM60.7373 121.997C59.9284 124.104 60.1664 124.648 61.1547 122.949C61.6443 122.107 61.8681 121.242 61.6518 121.027C61.4364 120.81 61.024 121.247 60.7373 121.997ZM47.11 127.314C46.3958 128.982 45.6171 130.818 45.3791 131.394C45.141 131.971 44.5978 132.442 44.172 132.442C42.4251 132.442 42.4989 129.555 44.3472 125.609C46.0874 121.893 46.431 121.579 47.3598 122.849C48.2089 124.011 48.162 124.857 47.11 127.314ZM48.9307 130.86C47.8644 133.162 46.6666 135.025 46.2684 135C45.2366 134.938 45.3472 134.24 47.1695 129.325C48.39 126.032 49.0472 125.164 49.8301 125.814C50.6424 126.488 50.4454 127.591 48.9307 130.86ZM43.3203 134.144C43.5735 135.881 43.441 135.993 42.2725 135.024C40.6908 133.711 40.4745 131.312 41.9825 131.809C42.5592 131.998 43.1611 133.05 43.3203 134.144ZM202.847 134.957C202.847 136.109 203.038 136.581 203.27 136.004C203.503 135.429 203.503 134.486 203.27 133.909C203.038 133.333 202.847 133.804 202.847 134.957ZM41.7394 135.732C42.3882 136.945 42.146 138.555 40.762 142.228C39.7494 144.914 38.5793 147.347 38.1618 147.635C37.7192 147.941 37.7461 148.371 38.2272 148.669C38.6807 148.949 40.0529 146.87 41.2759 144.049C42.4997 141.227 43.7286 139.147 44.0069 139.425C44.6733 140.092 40.9381 150.045 40.0202 150.045C39.6304 150.045 39.5399 150.705 39.8199 151.512C40.2566 152.768 40.0847 152.738 38.6245 151.302C36.8659 149.574 35.0955 145.254 36.5021 146.124C36.9363 146.392 37.1249 145.556 36.9296 144.228C36.6144 142.081 39.3789 134.118 40.4393 134.118C40.679 134.118 41.2641 134.844 41.7394 135.732ZM45.9641 137.521C45.9641 137.955 45.5869 138.31 45.1259 138.31C44.6649 138.31 44.2877 137.721 44.2877 137.003C44.2877 136.284 44.6649 135.929 45.1259 136.214C45.5869 136.499 45.9641 137.087 45.9641 137.521ZM54.0314 137.923C53.2225 140.03 53.4605 140.574 54.4488 138.875C54.9383 138.034 55.1621 137.169 54.9459 136.953C54.7305 136.737 54.318 137.174 54.0314 137.923ZM123.496 137.463C124.251 138.683 128.95 141.01 128.95 140.163C128.95 139.776 127.604 138.816 125.957 138.031C124.312 137.247 123.205 136.991 123.496 137.463ZM194.829 138.729C194.074 139.881 192.664 140.824 191.696 140.824C190.151 140.824 190.077 140.653 191.087 139.42C192.024 138.276 191.785 138.311 189.79 139.61L187.343 141.202L190.188 141.784C191.753 142.104 193.3 142.202 193.625 142C193.95 141.8 194.478 142.059 194.799 142.576C195.349 143.466 192.613 143.313 187.208 142.151C186.285 141.953 185.342 141.756 185.112 141.714C184.881 141.672 185.259 141.271 185.95 140.824C186.642 140.378 186.783 140.006 186.262 139.999C185.742 139.992 184.886 140.505 184.36 141.139C183.584 142.075 184.11 142.471 187.143 143.235C191.888 144.43 194.404 144.393 196.072 143.103C197.698 141.845 200.555 137.547 200.08 137.071C199.889 136.881 198.99 137.835 198.08 139.191C196.476 141.587 194.333 142.521 194.333 140.824C194.333 140.363 194.666 139.986 195.073 139.986C195.48 139.986 196.011 139.232 196.252 138.31C196.831 136.094 196.489 136.196 194.829 138.729ZM201.484 139.065C201.184 140.011 199.555 141.926 197.863 143.32C196.173 144.713 195.157 145.845 195.608 145.835C197.673 145.788 203.577 138.892 202.486 137.801C202.235 137.55 201.785 138.119 201.484 139.065ZM48.4789 140.976C48.4789 142.387 48.2559 142.521 47.271 141.704C46.6071 141.153 46.2693 140.165 46.5207 139.511C47.1503 137.87 48.4789 138.864 48.4789 140.976ZM46.3062 147.164C45.5475 148.979 44.5676 151.407 44.1292 152.56C43.3866 154.51 43.2709 154.547 42.4611 153.1C41.1753 150.802 45.0211 141.199 46.597 142.774C47.4906 143.668 47.4386 144.456 46.3062 147.164ZM53.7765 147.202C53.1722 148.777 51.8318 147.813 51.8318 145.804C51.8318 144.909 51.3825 144.272 50.8335 144.387C50.2853 144.502 49.6801 143.842 49.4898 142.92C49.1939 141.482 49.5066 141.586 51.6826 143.645C53.0783 144.965 54.0205 146.566 53.7765 147.202ZM58.2226 143.791C57.4137 145.898 57.6517 146.442 58.64 144.743C59.1295 143.901 59.3533 143.036 59.1371 142.821C58.9217 142.605 58.5092 143.041 58.2226 143.791ZM176.73 143.969C180.207 145.549 181.119 145.792 185.531 146.319C187.814 146.592 186.745 146.053 182.178 144.63C174.591 142.266 172.389 141.999 176.73 143.969ZM48.2702 151.469C47.0958 154.144 45.7579 156.25 45.2977 156.151C44.8367 156.051 44.6691 156.77 44.9247 157.749C45.2575 159.022 45.0949 159.345 44.3514 158.886C43.099 158.112 43.5383 156.14 46.4034 149.66C47.9726 146.112 48.8192 145.021 49.4864 145.688C50.1528 146.354 49.8192 147.942 48.2702 151.469ZM56.023 148.788C56.023 149.479 55.6458 150.045 55.1848 150.045C54.7238 150.045 54.3465 149.479 54.3465 148.788C54.3465 148.096 54.7238 147.53 55.1848 147.53C55.6458 147.53 56.023 148.096 56.023 148.788ZM52.194 149.114C52.5678 149.719 49.7748 157.867 48.7328 159.209C48.5778 159.41 48.0321 159.154 47.5208 158.643C46.8393 157.961 47.1092 156.462 48.5275 153.041C50.4144 148.487 51.2518 147.591 52.194 149.114ZM42.5718 155.913C42.5609 156.88 42.2801 156.803 41.3538 155.58C40.6916 154.705 40.3739 153.628 40.6472 153.185C41.2465 152.216 42.5911 154.122 42.5718 155.913ZM52.0867 166.236C51.5242 167.148 48.4789 164.339 48.4789 162.908C48.4789 162.287 48.0296 161.875 47.4805 161.99C46.9323 162.105 46.333 161.445 46.1494 160.523C45.8988 159.266 46.6523 159.685 49.162 162.199C51.0028 164.044 52.3188 165.86 52.0867 166.236ZM161.641 160.104C162.333 160.551 163.276 160.916 163.737 160.916C164.198 160.916 164.009 160.551 163.318 160.104C162.626 159.657 161.683 159.292 161.222 159.292C160.761 159.292 160.95 159.657 161.641 160.104ZM40.0671 167.793C40.0831 168.104 39.1643 169.466 38.0243 170.82C36.8843 172.174 36.181 173.512 36.461 173.792C36.7418 174.072 36.2791 175.351 35.435 176.633C34.5901 177.915 33.8457 179.643 33.7812 180.474C33.6395 182.303 31.1457 184.962 30.3335 184.15C30.0133 183.83 30.5221 182.72 31.4643 181.685C32.4065 180.65 33.0008 179.318 32.7853 178.726C32.5699 178.134 32.8792 177.066 33.4719 176.351C34.0653 175.637 34.6043 174.321 34.6697 173.427C34.7359 172.532 35.8894 170.63 37.2339 169.197C39.2499 167.048 39.3546 166.759 37.8324 167.547C36.0469 168.47 36.0168 168.416 36.9053 165.868L37.8232 163.235L38.9305 165.232C39.539 166.33 40.0504 167.483 40.0671 167.793ZM107.994 166.391C110.737 167.958 112.223 167.94 110.139 166.364C109.244 165.687 107.923 165.147 107.205 165.163C106.368 165.182 106.651 165.623 107.994 166.391ZM42.6112 170.017C42.6112 170.397 41.6204 171.623 40.4091 172.741L38.2071 174.773L39.5918 172.049C40.866 169.544 42.6112 168.37 42.6112 170.017ZM165.423 171.523C164.63 172.733 164.397 173.466 164.903 173.153C165.87 172.555 167.822 169.324 167.216 169.324C167.022 169.324 166.215 170.314 165.423 171.523ZM39.2457 181.098C38.0998 181.979 37.622 182.708 38.1844 182.718C39.9883 182.751 38.3907 185.048 35.0042 187.289C30.8281 190.052 30.7157 188.71 34.839 185.312C36.5574 183.896 37.5759 182.736 37.1023 182.736C36.6287 182.736 35.7946 183.182 35.2489 183.728C34.7032 184.274 34.0444 184.507 33.7845 184.248C33.5255 183.989 34.9069 182.605 36.855 181.171C40.5935 178.422 42.8174 178.354 39.2457 181.098ZM143.2 179.802C145.955 181.377 147.317 181.395 145.246 179.829C144.352 179.152 143.053 178.6 142.362 178.601C141.632 178.603 141.985 179.108 143.2 179.802ZM179.878 179.593C179.689 180.17 178.528 180.76 177.299 180.906C175.558 181.112 175.175 180.88 175.567 179.858C176.17 178.287 180.392 178.028 179.878 179.593ZM176.854 184.622C175.787 186.314 174.326 187.447 172.999 187.611C170.41 187.933 170.355 187.48 172.595 184.332C173.727 182.744 175.066 181.898 176.45 181.898H178.57L176.854 184.622ZM103.579 184.517C104.148 185.09 104.825 185.347 105.082 185.089C105.34 184.831 104.875 184.362 104.048 184.047C102.854 183.593 102.757 183.689 103.579 184.517ZM114.7 184.734C114.7 184.911 115.455 185.253 116.377 185.494C117.3 185.735 117.844 185.59 117.585 185.173C117.134 184.443 114.7 184.072 114.7 184.734ZM30.5355 186.84C29.4399 188.051 29.3561 188.517 30.1843 188.793C30.9186 189.037 30.5179 189.854 28.9512 191.306C27.3653 192.775 27.0543 193.418 27.9671 193.335C28.7014 193.269 30.8507 191.8 32.7434 190.071C36.5071 186.632 38.1266 186.02 36.7745 188.545C35.8215 190.327 31.8616 193.384 29.9789 193.793C29.3192 193.936 28.289 194.71 27.6897 195.513C26.2571 197.43 22.8338 199.344 23.7801 197.699C24.1381 197.076 24.8271 196.058 25.3116 195.435C25.7961 194.812 26.2747 193.742 26.3753 193.056C26.4759 192.371 27.1532 191.152 27.8808 190.348C28.6076 189.544 28.9202 188.604 28.574 188.258C28.2278 187.912 28.6763 187.093 29.5707 186.44C31.8314 184.787 32.2405 184.956 30.5355 186.84ZM61.5294 185.996C60.889 187.031 67.7441 193.078 75.3914 198.223C78.8005 200.516 81.7779 202.611 82.0085 202.877C82.8534 203.853 91.3791 207.135 92.2869 206.832C93.1948 206.53 86.2701 202.036 80.332 199.075C78.7184 198.271 74.7686 195.491 71.5556 192.899C68.3418 190.306 64.879 187.518 63.8606 186.703C62.8413 185.888 61.7926 185.57 61.5294 185.996ZM164.994 188.526C164.994 189.495 163.052 191.119 161.893 191.119C160.555 191.119 160.467 189.275 161.744 187.999C162.685 187.057 164.994 187.432 164.994 188.526ZM113.862 189.442C115.475 190.326 117.173 191.048 117.634 191.048C118.095 191.048 117.152 190.326 115.538 189.442C113.924 188.559 112.227 187.836 111.766 187.836C111.305 187.836 112.248 188.559 113.862 189.442ZM171.998 189.093C173.892 189.819 172.665 191.957 170.353 191.957C168.148 191.957 167.807 191.156 169.353 189.61C170.526 188.437 170.37 188.468 171.998 189.093ZM128.726 191.223C129.295 191.796 129.972 192.053 130.229 191.795C130.487 191.537 130.022 191.068 129.195 190.753C128.001 190.299 127.905 190.394 128.726 191.223ZM58.9485 191.97C58.6585 192.439 58.0708 192.606 57.6417 192.34C57.2125 192.075 56.8613 192.258 56.8613 192.746C56.8613 193.234 56.2955 193.633 55.6039 193.633C54.9124 193.633 54.3465 193.974 54.3465 194.389C54.3465 194.804 52.9785 195.951 51.3071 196.938C49.6356 197.924 48.4931 198.957 48.7697 199.233C49.0455 199.509 50.5753 198.741 52.168 197.525C53.8545 196.239 55.619 195.529 56.3919 195.825C57.36 196.198 57.5788 195.97 57.1999 194.984C56.6416 193.528 57.4782 193.252 59.1798 194.332C59.9275 194.807 59.122 195.809 56.4556 197.725C51.9584 200.955 51.4622 202.056 55.6056 199.611C57.2209 198.659 59.1069 198.095 59.7968 198.36C61.49 199.01 61.4137 199.251 58.7473 201.687C56.4799 203.759 56.4765 203.777 58.5377 202.786C59.6903 202.231 61.5881 201.111 62.7549 200.294C64.2965 199.216 65.2772 199.034 66.3418 199.63C67.6972 200.389 67.6645 200.578 65.8967 202.162L63.9863 203.874L66.2998 202.501C68.1012 201.432 68.9973 201.333 70.3469 202.055C71.2999 202.565 71.8808 203.5 71.6378 204.133C71.3561 204.867 71.6218 205.121 72.3729 204.832C73.0192 204.584 75.7351 205.173 78.4074 206.142C81.5642 207.286 82.7226 207.478 81.7151 206.691C80.8081 205.983 80.4267 205.055 80.7964 204.457C81.2113 203.785 81.0797 203.65 80.4141 204.061C79.855 204.406 78.4309 204.445 77.2473 204.148C75.1835 203.63 75.16 203.557 76.6664 202.347C78.1509 201.154 78.1366 201.133 76.3981 201.973C75.0779 202.612 73.9572 202.587 72.4165 201.885C70.0686 200.815 69.7023 199.903 71.3209 199.16C71.8976 198.895 71.5732 198.872 70.6009 199.109C69.6285 199.345 68.2043 199.298 67.4357 199.003C66.2789 198.559 66.2227 198.24 67.1079 197.146C67.9797 196.07 67.9755 195.948 67.0819 196.485C66.4792 196.848 65.0316 196.904 63.8648 196.612C62.0139 196.147 61.8865 195.902 62.8647 194.695C63.677 193.693 63.6954 193.487 62.931 193.946C62.3509 194.295 61.1044 194.335 60.1623 194.036C58.7951 193.602 58.6484 193.253 59.4347 192.306C59.9762 191.653 60.2067 191.119 59.9468 191.119C59.6878 191.119 59.2377 191.502 58.9485 191.97ZM161.448 191.82C163.007 192.809 157.956 199.643 156.173 198.959C155.049 198.527 155.031 198.221 156.034 196.675C156.672 195.694 157.719 194.042 158.362 193.005C159.649 190.928 159.893 190.833 161.448 191.82ZM121.406 192.795C122.097 193.242 123.04 193.607 123.501 193.607C123.962 193.607 123.774 193.242 123.082 192.795C122.391 192.348 121.448 191.983 120.987 191.983C120.526 191.983 120.714 192.348 121.406 192.795ZM33.6797 195.648C32.4718 198.181 29.3444 200.618 27.1683 200.722C26.7425 200.742 25.3116 201.841 23.9872 203.166C22.6636 204.489 21.3803 205.374 21.1363 205.13C20.5286 204.522 23.1783 199.531 24.1917 199.375C24.641 199.306 25.4231 199.212 25.9302 199.166C26.4374 199.12 28.3393 197.668 30.1566 195.939C34.2615 192.034 35.4501 191.935 33.6797 195.648ZM164.281 195.519C162.406 198.497 160.34 200.157 159.526 199.342C158.613 198.428 162.839 192.816 164.448 192.805C165.92 192.796 165.912 192.931 164.281 195.519ZM170.862 193.232C170.862 193.472 169.869 195.17 168.655 197.004C167.09 199.369 165.857 200.339 164.414 200.339C162.186 200.339 162.268 199.997 165.579 195.519C166.687 194.021 168.33 192.795 169.228 192.795C170.127 192.795 170.862 192.992 170.862 193.232ZM91.2291 195.67C91.2291 195.901 91.9835 196.493 92.9056 196.986C93.8276 197.48 94.5821 197.695 94.5821 197.464C94.5821 197.234 93.8276 196.642 92.9056 196.148C91.9835 195.654 91.2291 195.44 91.2291 195.67ZM129.788 196.148C130.48 196.595 131.423 196.96 131.884 196.96C132.345 196.96 132.156 196.595 131.465 196.148C130.773 195.701 129.83 195.336 129.369 195.336C128.908 195.336 129.097 195.701 129.788 196.148ZM62.7046 196.954C63.3828 197.383 63.682 197.989 63.3694 198.302C62.6024 199.069 60.2142 198.093 60.2142 197.012C60.2142 195.948 61.0818 195.928 62.7046 196.954ZM147.199 199.344C147.384 199.9 146.76 200.339 145.784 200.339C144.043 200.339 143.521 199.459 144.615 198.366C145.391 197.589 146.791 198.119 147.199 199.344ZM152.001 200.339C151.716 200.8 150.752 201.178 149.856 201.178C148.961 201.178 148.229 200.8 148.229 200.339C148.229 199.878 149.195 199.501 150.374 199.501C151.591 199.501 152.296 199.864 152.001 200.339ZM155.774 201.178C155.774 201.639 155.208 202.016 154.516 202.016C153.825 202.016 153.259 201.639 153.259 201.178C153.259 200.717 153.825 200.339 154.516 200.339C155.208 200.339 155.774 200.717 155.774 201.178ZM41.9054 204.531C41.9054 205.683 42.0957 206.155 42.3279 205.578C42.5609 205.002 42.5609 204.059 42.3279 203.483C42.0957 202.907 41.9054 203.378 41.9054 204.531ZM152.585 206.417C149.496 210.943 147.83 214.096 148.866 213.457C149.307 213.184 151.105 210.875 152.861 208.326C154.616 205.778 156.577 203.692 157.22 203.692C158.49 203.692 158.375 203.967 154.935 209.141C153.709 210.985 152.38 213.06 151.983 213.751C150.333 216.621 153.905 212.809 156.681 208.738C158.729 205.732 160.098 204.533 161.484 204.532C163.388 204.531 163.373 204.598 160.645 208.398C156.965 213.527 152.618 217.265 150.885 216.793C150.116 216.584 148.079 216.175 146.36 215.885L143.233 215.358L147.58 209.106C150.321 205.162 152.496 202.854 153.471 202.854C154.833 202.854 154.728 203.276 152.585 206.417ZM42.7436 208.722C42.7436 209.874 42.9339 210.346 43.1661 209.77C43.3991 209.194 43.3991 208.251 43.1661 207.674C42.9339 207.098 42.7436 207.569 42.7436 208.722ZM50.3808 208.671C48.4294 208.989 46.5434 209.563 46.1896 209.947C45.8351 210.332 46.488 210.407 47.6406 210.114C48.7932 209.822 51.173 209.578 52.9291 209.572C54.842 209.564 55.9141 209.224 55.6039 208.722C55.3189 208.261 54.8252 207.93 54.5066 207.988C54.1881 208.046 52.3314 208.354 50.3808 208.671ZM97.4664 209.919C98.3617 210.644 100.04 211.236 101.197 211.236C104.146 211.236 102.41 209.72 98.7473 209.096C95.9995 208.629 95.9291 208.674 97.4664 209.919ZM43.6322 212.913C43.6238 214.065 43.9188 215.952 44.2877 217.104C44.8132 218.746 44.9557 218.837 44.9432 217.523C44.9348 216.601 44.6397 214.715 44.2877 213.332C43.7126 211.073 43.6464 211.03 43.6322 212.913ZM52.2509 212.913C53.173 213.309 54.4932 213.633 55.1848 213.633C55.9769 213.633 55.8227 213.367 54.7657 212.913C53.8436 212.516 52.5234 212.193 51.8318 212.193C51.0397 212.193 51.1939 212.459 52.2509 212.913ZM89.7622 213.456C86.369 215.128 86.1745 216.48 89.4931 215.323C91.1822 214.734 92.463 214.742 93.5963 215.349C94.8151 216.001 95.4815 215.946 96.1529 215.136C96.8562 214.288 96.6383 214.055 95.1931 214.106C94.121 214.143 93.4144 213.723 93.5343 213.122C93.8067 211.759 93.0741 211.823 89.7622 213.456ZM48.3221 213.485C48.9265 213.728 49.6499 213.698 49.9282 213.419C50.2065 213.141 49.7119 212.943 48.8284 212.979C47.8519 213.019 47.6532 213.218 48.3221 213.485ZM36.9531 214.329C37.7603 214.54 39.0797 214.54 39.8869 214.329C40.6941 214.118 40.0336 213.946 38.42 213.946C36.8064 213.946 36.1458 214.118 36.9531 214.329ZM61.1187 215.916C61.1589 216.893 61.3576 217.092 61.625 216.423C61.8672 215.818 61.8371 215.095 61.5588 214.817C61.2805 214.538 61.0826 215.033 61.1187 215.916ZM61.8907 219.097C61.8907 219.768 60.853 220.686 59.5855 221.135C57.3709 221.921 57.4028 221.949 60.4104 221.834C63.8413 221.703 64.8296 220.621 63.0433 218.952C62.1003 218.072 61.8907 218.098 61.8907 219.097ZM30.1038 220.108C30.144 221.084 30.3427 221.283 30.6101 220.615C30.8524 220.009 30.8222 219.286 30.5439 219.008C30.2656 218.729 30.0678 219.224 30.1038 220.108ZM70.3905 219.742C66.4298 220.882 67.4885 221.366 71.8163 220.393C73.7929 219.95 75.7627 219.804 76.1944 220.071C76.6261 220.338 76.979 220.156 76.979 219.668C76.979 218.603 74.243 218.634 70.3905 219.742ZM84.3664 219.353C84.9708 219.595 85.6942 219.565 85.9725 219.287C86.2508 219.009 85.7562 218.811 84.8727 218.847C83.8962 218.887 83.6975 219.086 84.3664 219.353ZM45.4352 222.134C45.5467 223.747 45.9943 225.155 46.4294 225.262C47.5149 225.528 56.9954 222.827 56.5478 222.379C56.3499 222.181 54.1965 222.611 51.7623 223.334C49.328 224.056 47.2274 224.648 47.0933 224.648C46.96 224.648 46.4864 223.423 46.0413 221.924L45.2315 219.2L45.4352 222.134ZM80.3982 222.622C80.4384 223.599 80.6371 223.797 80.9045 223.129C81.1467 222.524 81.1166 221.801 80.8383 221.522C80.56 221.244 80.3621 221.739 80.3982 222.622ZM102.964 222.134C102.273 222.58 102.084 222.946 102.545 222.946C103.006 222.946 103.949 222.58 104.641 222.134C105.332 221.687 105.521 221.321 105.06 221.321C104.599 221.321 103.656 221.687 102.964 222.134ZM131.003 222.89C132.449 223.456 132.335 223.635 130.012 224.445C128.568 224.948 126.548 225.14 125.523 224.872C124.3 224.552 123.852 224.698 124.221 225.294C124.988 226.536 122.049 227.357 119.302 226.667C117.65 226.252 117.354 225.914 118.183 225.388C118.803 224.995 120.116 224.668 121.101 224.661C122.085 224.654 123.971 224.085 125.292 223.396C127.944 222.013 128.609 221.954 131.003 222.89ZM30.9421 224.299C30.9823 225.275 31.181 225.474 31.4484 224.806C31.6906 224.201 31.6604 223.477 31.3821 223.199C31.1038 222.921 30.906 223.415 30.9421 224.299ZM55.7741 225.251C49.8259 226.81 49.9416 227.551 55.9325 226.266C59.1723 225.571 60.573 225.579 61.4372 226.296C62.3752 227.074 62.511 226.928 62.1464 225.534C61.8982 224.586 61.4565 223.848 61.1639 223.893C60.8722 223.939 58.4464 224.55 55.7741 225.251ZM92.9056 228.943C90.3699 229.779 89.6155 230.207 91.2291 229.896C92.8427 229.585 95.2007 229.313 96.4681 229.294C97.7355 229.275 98.7732 228.998 98.7732 228.679C98.7732 227.423 97.3248 227.488 92.9056 228.943ZM38.8391 228.853C36.8592 229.35 37.1081 229.415 40.0093 229.161C42.0362 228.984 44.2139 229.269 44.8485 229.796C45.7647 230.556 45.8937 230.47 45.4746 229.377C44.9222 227.938 43.0672 227.792 38.8391 228.853ZM55.8663 228.574C56.4706 228.816 57.194 228.786 57.4723 228.508C57.7506 228.229 57.2561 228.031 56.3726 228.067C55.396 228.108 55.1974 228.306 55.8663 228.574ZM26.6846 230.837C26.6846 231.014 27.6277 231.339 28.7802 231.56C29.9328 231.78 30.8758 231.635 30.8758 231.238C30.8758 230.841 29.9328 230.516 28.7802 230.516C27.6277 230.516 26.6846 230.661 26.6846 230.837ZM117.215 231.354C117.906 231.801 119.038 232.146 119.729 232.12C120.558 232.09 120.416 231.829 119.31 231.354C117.006 230.364 115.682 230.364 117.215 231.354ZM13.2728 232.192C13.2728 232.653 12.6131 233.037 11.8059 233.043C10.7245 233.053 10.6223 233.236 11.4178 233.741C12.2711 234.282 12.1353 235.267 10.7673 238.457C8.05224 244.792 9.35654 243.773 12.3918 237.188C16.2745 228.765 18.8446 229.829 19.0567 239.946C19.1229 243.08 18.8538 243.928 17.7926 243.928C16.7708 243.928 16.5537 243.37 16.8973 241.623L17.35 239.317L16.407 241.623C15.8881 242.89 14.9711 243.928 14.3684 243.928C12.9191 243.928 12.9333 243.846 15.417 237.944C18.3877 230.886 17.4749 230.89 14.2208 237.949C11.9383 242.9 11.1889 243.8 8.97598 244.242C5.30365 244.976 4.83927 244.351 6.0807 240.344C7.88292 234.534 9.21069 232.299 11.0825 231.931C12.0565 231.739 12.9476 231.531 13.0632 231.468C13.1789 231.405 13.2728 231.731 13.2728 232.192ZM32.6185 232.681C32.6588 233.658 32.8574 233.856 33.1248 233.188C33.3671 232.583 33.3369 231.86 33.0586 231.581C32.7803 231.303 32.5825 231.798 32.6185 232.681ZM127.273 232.192C126.582 232.639 126.393 233.005 126.854 233.005C127.315 233.005 128.258 232.639 128.95 232.192C129.641 231.746 129.83 231.38 129.369 231.38C128.908 231.38 127.965 231.746 127.273 232.192ZM77.4476 234.021C72.7266 235.059 72.8146 235.463 77.7242 235.283C80.073 235.197 81.9984 234.866 82.0018 234.547C82.0143 233.446 80.7377 233.298 77.4476 234.021ZM119.31 234.674C117.292 235.161 117.078 235.405 118.224 235.908C119.085 236.286 120.405 236.006 121.553 235.201C123.578 233.783 123.287 233.714 119.31 234.674ZM33.4568 236.034C33.497 237.011 33.6957 237.209 33.9631 236.541C34.2053 235.936 34.1751 235.213 33.8969 234.934C33.6186 234.656 33.4207 235.151 33.4568 236.034ZM72.2413 248.329C74.8558 255.359 76.9916 261.503 76.9866 261.981C76.9799 262.792 60.3668 268.727 59.8496 268.103C58.7004 266.714 55.36 254.397 56.0222 253.988C56.479 253.705 59.5084 252.785 62.7541 251.943C65.9998 251.101 68.4809 250.239 68.2689 250.027C68.0568 249.814 65.874 250.2 63.4197 250.884C53.8637 253.547 54.8176 253.912 52.7036 246.793C51.6709 243.312 51.0154 240.274 51.2476 240.042C51.5745 239.715 64.5714 236.079 66.9947 235.636C67.2663 235.586 69.6268 241.298 72.2413 248.329ZM73.6261 238.898C72.9345 239.345 72.7459 239.711 73.2069 239.711C73.668 239.711 74.611 239.345 75.3025 238.898C75.9941 238.452 76.1827 238.086 75.7217 238.086C75.2606 238.086 74.3176 238.452 73.6261 238.898ZM60.6333 239.806C58.5076 240.406 58.6626 240.454 61.6325 240.124C64.5672 239.797 65.361 240.039 66.4524 241.597C67.7617 243.468 68.2027 242.708 67.2496 240.224C66.7039 238.802 64.6544 238.672 60.6333 239.806ZM51.7824 246.468C52.7673 249.712 53.3809 252.676 53.1453 253.057C52.7187 253.749 40.1677 256.057 39.7285 255.526C39.2423 254.937 35.8156 242.9 36.0637 242.653C36.5239 242.195 48.877 240.027 49.4445 240.305C49.7454 240.452 50.7974 243.226 51.7824 246.468ZM55.8663 241.147C56.4706 241.39 57.194 241.359 57.4723 241.081C57.7506 240.803 57.2561 240.605 56.3726 240.641C55.396 240.681 55.1974 240.88 55.8663 241.147ZM38.415 255.378C38.42 256.361 24.5396 257.989 23.6603 257.109C22.9997 256.449 20.8379 247.937 20.827 245.953C20.8178 244.385 21.5228 244.127 27.7324 243.438L34.6479 242.67L36.5289 248.538C37.5642 251.765 38.4124 254.843 38.415 255.378ZM86.6188 243.09C86.3338 243.551 86.5006 243.928 86.9884 243.928C87.4763 243.928 87.8761 243.551 87.8761 243.09C87.8761 242.629 87.7102 242.251 87.5065 242.251C87.3028 242.251 86.9038 242.629 86.6188 243.09ZM45.1259 244.219C47.4269 245.431 48.1042 245.356 47.2559 243.984C46.9524 243.492 45.877 243.095 44.8669 243.102C43.1057 243.114 43.1158 243.159 45.1259 244.219ZM39.4837 244.509C40.2993 244.722 41.4309 244.707 41.9984 244.478C42.5659 244.248 41.8987 244.074 40.5156 244.091C39.1325 244.108 38.6681 244.296 39.4837 244.509ZM18.3022 245.167C18.3022 245.295 17.697 246.86 16.9569 248.645C15.3173 252.6 16.3223 251.823 18.4531 247.489L19.9972 244.347L19.5814 247.113C19.2922 249.037 19.454 249.701 20.1128 249.293C20.76 248.894 20.9259 249.412 20.6359 250.928C20.402 252.149 20.5361 253.148 20.9335 253.148C21.33 253.148 21.6552 254.28 21.6552 255.663C21.6552 258.116 21.5538 258.178 17.542 258.178C13.655 258.178 13.2158 257.941 9.57868 253.896C4.89711 248.689 4.40003 245.604 8.24336 245.604C10.8 245.604 11.8201 247.551 9.71028 248.402C9.13441 248.635 9.69938 248.855 10.9676 248.891C12.2359 248.927 13.2728 249.361 13.2728 249.855C13.2728 250.35 13.8629 250.163 14.5838 249.443C16.3466 247.679 15.3751 246.156 13.2217 247.308C11.9811 247.972 11.5963 247.906 11.5963 247.031C11.5963 246.4 11.8101 245.67 12.0716 245.409C12.5402 244.94 18.3022 244.716 18.3022 245.167ZM26.6846 246.076C29.6252 246.725 34.8944 246.841 34.528 246.248C34.3093 245.894 32.1717 245.648 29.7786 245.701C27.3854 245.755 25.9931 245.924 26.6846 246.076ZM80.7511 248.073C76.7426 249.97 77.4526 250.32 81.705 248.544C83.353 247.855 85.0965 247.536 85.5802 247.835C86.0924 248.152 86.2097 247.975 85.8602 247.411C85.0798 246.147 84.7235 246.194 80.7511 248.073ZM83.2717 250.624C82.9783 251.099 83.3144 251.24 84.0605 250.954C85.5123 250.396 85.778 249.795 84.5726 249.795C84.1384 249.795 83.5533 250.168 83.2717 250.624ZM65.6628 253.111C64.4524 253.604 64.9763 253.762 67.5438 253.681C69.5011 253.619 71.1038 253.285 71.1063 252.939C71.113 252.127 67.8229 252.231 65.6628 253.111ZM91.4143 254.841C91.7304 257.648 92.8092 258.259 94.5452 256.612C95.3381 255.859 96.7078 254.767 97.5897 254.184C98.4706 253.601 97.8998 253.74 96.3189 254.492C93.6089 255.783 93.3817 255.772 92.3129 254.311C91.2568 252.865 91.1964 252.901 91.4143 254.841ZM58.2527 266.6C58.6735 268.707 58.4715 268.832 52.5359 270.138C49.152 270.883 46.1477 271.231 45.8594 270.912C45.0127 269.975 40.9347 259.258 40.9347 257.971C40.9347 257.164 42.9842 256.408 47.4311 255.576L53.9274 254.36L55.8713 259.388C56.9409 262.154 58.0122 265.4 58.2527 266.6ZM60.8429 254.542C61.4196 254.775 62.3626 254.775 62.9385 254.542C63.5152 254.309 63.0433 254.119 61.8907 254.119C60.7381 254.119 60.267 254.309 60.8429 254.542ZM45.9641 257.873L42.1921 259.025L45.545 258.61C47.3892 258.382 49.3699 258.192 49.9458 258.187C50.5225 258.182 50.9936 257.801 50.9936 257.34C50.9936 256.357 50.888 256.368 45.9641 257.873ZM42.0982 264.635C45.177 272.289 45.3304 271.968 38.1702 272.862C31.362 273.713 28.2639 271.652 25.9202 264.712C24.9637 261.88 24.273 259.474 24.3853 259.365C24.7575 259.002 36.2976 257.523 37.8282 257.642C38.8886 257.724 40.1484 259.787 42.0982 264.635ZM85.3614 259.435C84.2088 260.094 83.643 260.633 84.1041 260.633C84.5651 260.633 85.8853 260.094 87.0379 259.435C88.1905 258.776 88.7563 258.237 88.2953 258.237C87.8342 258.237 86.514 258.776 85.3614 259.435ZM23.6695 262.931C24.4029 265.083 24.9017 266.946 24.7776 267.07C24.6536 267.194 22.5211 265.715 20.0382 263.785L15.5243 260.273L18.3802 259.755C19.9511 259.47 21.4834 259.187 21.786 259.127C22.0886 259.066 22.936 260.777 23.6695 262.931ZM32.9714 259.805C30.5523 260.362 30.5925 260.399 34.0268 260.771C36.1182 260.998 37.4854 260.822 37.3278 260.349C36.9606 259.248 35.938 259.121 32.9714 259.805ZM86.1997 262.369C82.7201 264.274 84.3195 264.627 87.9423 262.754C89.3162 262.044 90.8645 261.724 91.3833 262.046C91.9584 262.401 92.0933 262.251 91.7278 261.661C90.9047 260.328 89.6281 260.492 86.1997 262.369ZM80.2498 269.296C82.4896 274.907 82.2054 276.265 78.4585 277.84C75.4517 279.105 74.1667 278.729 76.1425 277.162C77.3671 276.191 79.4937 272.91 79.4937 271.991C79.4937 271.738 78.3915 272.787 77.0444 274.321C75.4543 276.132 73.0041 277.612 70.056 278.541C64.6317 280.25 64.1213 280.289 64.9193 278.924C65.2562 278.348 64.7776 278.537 63.8547 279.343C61.4699 281.429 59.8949 281.297 61.065 279.11C61.5655 278.176 62.3107 277.617 62.7206 277.871C63.1305 278.125 63.4079 277.57 63.3383 276.638C63.2017 274.822 61.8932 274.239 61.8865 275.99C61.8781 278.13 58.0817 281.493 55.1001 282.001C52.1193 282.509 52.0473 282.453 49.4462 277.573L46.8116 272.629L52.2183 271.271C59.3642 269.476 59.9376 269.533 60.583 272.108C60.8865 273.315 61.3148 274.121 61.5361 273.901C61.7566 273.679 61.5822 272.563 61.1472 271.42C60.3743 269.386 60.5428 269.277 68.8774 266.425C73.564 264.823 77.606 263.725 77.8592 263.988C78.1132 264.25 79.1886 266.639 80.2498 269.296ZM89.5526 264.884C88.7974 265.372 88.6934 265.701 89.2936 265.709C89.8426 265.716 90.525 265.345 90.81 264.884C91.4529 263.843 91.1629 263.843 89.5526 264.884ZM97.0968 267.007C97.0968 267.66 95.9651 268.779 94.5821 269.494C91.9257 270.868 91.1369 271.894 93.4077 271.023C94.5896 270.57 94.6147 270.743 93.6172 272.496C92.9953 273.59 91.3012 276.097 89.8527 278.068C87.8661 280.772 87.0957 281.333 86.7185 280.349C86.1921 278.978 88.3791 274.943 89.649 274.943C90.0572 274.943 90.297 274.653 90.1813 274.3C90.0665 273.946 91.2358 271.684 92.7815 269.274C95.4161 265.163 97.0968 264.28 97.0968 267.007ZM68.7542 267.971C63.3803 269.871 64.9494 270.09 70.7257 268.246C73.4735 267.368 74.9672 266.66 74.0452 266.672C73.1231 266.683 70.7417 267.268 68.7542 267.971ZM87.7688 268.027C86.7269 269.357 86.7562 269.386 88.0857 268.344C89.4822 267.248 89.9256 266.56 89.2358 266.56C89.0622 266.56 88.4017 267.221 87.7688 268.027ZM98.4606 271.748C97.7104 272.168 97.0968 272.902 97.0968 273.378C97.0968 274.831 89.3858 284.159 88.5911 283.668C87.747 283.147 87.8317 282.977 92.2442 276.41C94.0255 273.758 95.909 271.59 96.4295 271.59C96.9501 271.59 97.1278 271.342 96.8243 271.038C96.5209 270.735 96.7129 269.957 97.251 269.309C98.08 268.309 98.3491 268.347 99.0264 269.558C99.6098 270.601 99.4581 271.19 98.4606 271.748ZM54.7657 272.428C53.2912 273.062 53.3725 273.156 55.4438 273.207C56.8118 273.242 57.5813 272.915 57.2804 272.428C56.9954 271.967 56.6903 271.617 56.6022 271.648C56.5142 271.681 55.6877 272.031 54.7657 272.428ZM97.8445 277.061C95.9207 279.608 94.1805 281.526 93.976 281.322C93.4781 280.825 99.7842 272.428 100.656 272.428C101.033 272.428 99.7682 274.513 97.8445 277.061ZM47.6641 277.248C48.7823 279.438 49.8318 281.512 49.9961 281.858C50.6776 283.292 47.9181 282.282 42.0915 278.967C38.6891 277.032 35.9053 275.169 35.9053 274.829C35.9053 274.241 38.8098 273.694 43.4922 273.4C45.2525 273.29 45.9893 273.969 47.6641 277.248ZM50.8368 273.839C51.4412 274.081 52.1646 274.051 52.4429 273.772C52.7212 273.494 52.2266 273.296 51.3431 273.332C50.3666 273.373 50.1679 273.571 50.8368 273.839ZM42.6112 275.264C42.6112 275.441 43.3656 275.783 44.2877 276.024C45.2097 276.265 45.9641 276.12 45.9641 275.702C45.9641 275.285 45.2097 274.943 44.2877 274.943C43.3656 274.943 42.6112 275.088 42.6112 275.264ZM83.949 277.774C84.1921 278.409 82.7671 281.35 80.7821 284.309C77.9254 288.567 76.5113 289.893 74.0033 290.663C70.1951 291.832 69.8774 291.67 67.7257 287.453L66.0417 284.151L67.8959 281.642C68.916 280.263 70.0258 279.134 70.362 279.134C70.6989 279.134 71.6654 278.913 72.5095 278.644C73.7057 278.264 73.6076 278.542 72.0661 279.902C70.9781 280.862 70.3267 281.649 70.6185 281.649C70.911 281.649 70.5371 282.686 69.7886 283.954C68.548 286.054 68.6427 286.019 70.8532 283.564C72.1876 282.082 74.7099 280.272 76.4585 279.541L79.6371 278.213L75.5984 283.872C70.3888 291.174 72.0166 290.194 77.8541 282.516C82.5139 276.387 83.2088 275.846 83.949 277.774ZM66.6603 282.267C65.3711 283.557 65.2437 283.561 65.2437 282.317C65.2437 281.566 65.7156 280.782 66.2915 280.576C68.004 279.965 68.1758 280.752 66.6603 282.267ZM85.4201 284.473C84.5098 286.173 81.3639 288.354 79.8215 288.354C79.5843 288.354 80.6136 286.65 82.109 284.567C83.918 282.049 85.1091 281.061 85.6649 281.617C86.2206 282.172 86.1393 283.13 85.4201 284.473ZM66.2957 286.517C67.501 289.125 68.3535 291.392 68.1901 291.555C68.0275 291.718 64.5974 290.307 60.5688 288.419C56.5402 286.531 53.5209 284.71 53.8587 284.371C54.4723 283.758 60.2905 282.151 62.7885 281.905C63.6284 281.822 64.8975 283.491 66.2957 286.517ZM92.3926 284.608C91.6273 285.775 90.8041 286.532 90.5618 286.29C90.1587 285.887 92.7622 282.487 93.4739 282.487C93.6432 282.487 93.157 283.442 92.3926 284.608ZM87.369 286.888C87.0354 287.464 86.0706 288.936 85.2239 290.16C82.6715 293.851 83.4913 293.775 86.6188 290.031C88.2324 288.1 89.5526 287.077 89.5526 287.759C89.5526 288.44 88.0429 290.362 86.1971 292.029C82.5676 295.309 80.5005 295.688 74.8834 294.107C71.6009 293.183 71.574 293.146 73.6261 292.322C77.0335 290.952 81.5357 289.001 82.3018 288.562C82.6933 288.336 82.5541 289.046 81.9917 290.139C81.2968 291.49 81.9112 291.118 83.9071 288.983C86.7931 285.895 88.5627 284.825 87.369 286.888Z" fill-opacity="0.3"/>
  </symbol>
  <symbol class="ilustration" id="ice-cream" viewbox="0 0 214 300">
    <path fill-rule="evenodd" clip-rule="evenodd" d="M0.884939 2.36101C-2.83039 12.0425 4.70399 32.4026 32.0535 86.6031L48.0681 118.338L47.0867 128.631C46.2863 137.008 46.6749 140.215 49.1672 145.85C51.1085 150.237 51.7355 153.558 50.8809 154.908C50.1379 156.08 49.5202 158.639 49.5063 160.596C49.4908 162.969 47.8746 165.026 44.6438 166.788C29.9775 174.779 25.9681 183.196 30.0828 197.351C31.6789 202.836 34.6233 207.952 38.577 212.11C44.5231 218.36 44.7955 218.463 53.8966 217.943C61.386 217.516 63.4837 217.928 64.832 220.095C65.7516 221.569 70.1 224.598 74.4965 226.826C81.8807 230.568 83.4474 230.797 95.0129 229.817C101.9 229.233 114.882 228.863 123.861 228.996C139.716 229.23 140.485 229.08 150.57 223.824C159.765 219.032 161.895 218.51 169.197 219.264C179.305 220.307 188.523 216.663 199.925 207.116C206.128 201.922 207.936 201.077 209.067 202.836C212.614 208.353 207.005 213.288 188.382 221.036C153.048 235.735 113.977 238.681 70.7518 229.905C50.8004 225.855 37.6838 220.563 31.3816 214.02C27.2019 209.683 27.1972 209.683 29.7283 213.731C31.1231 215.963 34.1155 228.424 36.3772 241.419C38.6389 254.417 41.6561 269.658 43.0818 275.289C45.5417 285.007 46.0278 285.702 52.6101 288.925C71.1016 297.982 108.566 302.331 137.19 298.744C154.249 296.605 180.159 290.321 185.045 287.137C188.481 284.898 198.821 252.206 203.671 228.25C205.194 220.72 207.324 214.781 209.103 213.096C212.546 209.838 212.933 203.836 209.865 201.291C208.029 199.766 208.177 198.363 210.852 192.033C215.425 181.209 213.798 174.444 204.484 165.554C199.576 160.87 196.524 156.331 195.164 151.699C193.308 145.375 188.732 139.695 179.835 132.673C177.959 131.192 176.411 128.405 176.396 126.481C176.38 124.557 174.188 119.151 171.526 114.468C158.169 90.9872 156.367 87.1078 156.334 81.7608C156.313 78.4758 157.322 75.2961 158.765 74.0979C162.604 70.9135 171.168 71.6365 176.526 75.598L181.322 79.143L177.712 72.7913C175.725 69.2989 171.21 63.5851 167.674 60.0942C162.62 55.1033 159.787 53.5831 154.401 52.9762C141.999 51.5783 130.827 60.1577 106.681 89.6202C100.016 97.7522 92.084 106.688 89.0529 109.477C86.0202 112.265 83.5403 115.575 83.5403 116.83C83.5403 119.837 82.8065 119.745 72.1218 115.392L63.027 111.688L57.2667 97.9844C41.4533 60.3697 16.5621 8.47737 11.8932 3.39511C8.18866 -0.639125 2.25032 -1.19642 0.884939 2.36101ZM10.3436 6.49122C14.9057 11.4605 20.5654 23.3464 39.2767 67.2524C48.3483 88.5382 56.7666 108.183 57.9834 110.909C59.7033 114.761 61.6755 116.261 66.8367 117.651C70.4902 118.632 75.4997 120.482 77.9704 121.758L82.4644 124.08L77.6964 128.535C75.0755 130.986 72.4841 134.396 71.9391 136.115C71.3927 137.831 70.3679 139.237 69.6588 139.237C68.9498 139.237 64.7747 141.657 60.3798 144.615L52.3872 149.993L49.9831 144.237C48.0124 139.522 47.8901 137.129 49.305 131.001C50.254 126.887 51.0311 122.057 51.0311 120.269C51.0311 118.479 42.9317 100.246 33.0303 79.7498C23.1305 59.2536 12.5697 36.9105 9.5618 30.0991C0.677505 9.98208 1.12489 -3.54947 10.3436 6.49122ZM19.0421 29.325C20.7852 35.1999 46.8839 92.8139 47.517 92.1823C48.3576 91.3401 29.462 47.8692 22.8859 35.5173C20.3935 30.8344 18.6644 28.0479 19.0421 29.325ZM163.42 61.5757C166.741 63.9891 170.434 67.1487 171.628 68.5977C173.626 71.0235 173.315 71.1566 167.754 70.268C162.943 69.4986 160.839 69.9847 157.455 72.6458C149.983 78.5238 152.091 91.0569 163.903 110.987C171.357 123.566 173.62 134.062 169.524 137.057C167.744 138.359 164.261 138.751 159.485 138.184C153.06 137.424 151.81 137.771 149.204 141.042C141.081 151.236 133.674 152.419 123.635 145.123C118.159 141.144 115.001 140.062 107.535 139.609C96.3427 138.929 92.6258 137.288 89.2201 131.523C84.483 123.503 85.7679 117.772 94.067 109.903C98.1539 106.028 107.032 96.6066 113.795 88.967C133.646 66.5449 145.266 57.2133 153.358 57.1978C155.571 57.1931 160.099 59.1638 163.42 61.5757ZM133.849 74.6057C132.491 76.5206 127.757 84.2764 123.328 91.8386C118.899 99.4024 112.63 108.319 109.396 111.655C103.68 117.552 103.645 117.654 108.156 115.321C113.72 112.443 118.159 106.72 126.829 91.2473C134.16 78.1631 137.125 74.4137 141.592 72.5854C144.322 71.4693 144.193 71.3068 140.504 71.2201C137.849 71.1581 135.416 72.3966 133.849 74.6057ZM133.929 89.6141C132.145 91.5863 130.72 96.9534 129.799 105.192C128.341 118.224 125.476 127.068 121.169 131.826C119.793 133.348 119.362 134.593 120.214 134.593C125.459 134.593 131.361 120.855 131.462 108.412C131.511 102.319 132.603 98.2011 135.465 93.3186C139.538 86.3693 138.699 84.3445 133.929 89.6141ZM141.3 99.9644C140.259 102.675 143.458 121.462 145.614 125.304C147.62 128.882 147.367 120.228 145.311 114.956C144.376 112.559 143.654 107.638 143.707 104.019C143.806 97.1407 142.942 95.6871 141.3 99.9644ZM87.6039 135.446C91.3425 141.15 97.6415 143.856 106.705 143.652C113.348 143.502 115.576 144.226 120.398 148.101C123.565 150.646 127.774 153.242 129.751 153.871C135.529 155.704 143.56 153.386 149.497 148.172C154.311 143.946 156.034 143.369 163.01 143.637C171.495 143.962 173.459 143.222 175.879 138.786C177.311 136.163 177.617 136.19 181.583 139.31C190.968 146.691 192.903 159.247 186.706 172.553C178.647 189.861 162.725 199.114 149.11 194.4C143.122 192.326 140.246 188.775 144.555 188.775C151.025 188.775 165.792 169.571 165.465 161.582C165.38 159.51 164.835 160.02 163.695 163.232C159.901 173.934 148.716 184.267 137.718 187.228C131.095 189.012 120.602 186.481 113.422 181.369L109.023 178.236L98.2174 181.917C80.4147 187.982 70.6775 186.649 61.6693 176.915C49.9846 164.289 51.9677 154.846 68.0597 146.488C71.8912 144.499 75.7505 141.431 76.6344 139.67C78.8466 135.271 82.1052 131.497 83.6935 131.497C84.4211 131.497 86.1812 133.274 87.6039 135.446ZM71.6326 160.91C72.0723 168.919 79.1577 172.252 93.2094 171.062C103.002 170.232 117.06 166.049 115.455 164.442C115.057 164.045 110.689 164.894 105.749 166.331C88.2696 171.412 75.238 168.631 72.4438 159.222C71.549 156.213 71.3927 156.54 71.6326 160.91ZM201.488 166.715C206.459 172.045 208.933 176.79 208.933 180.994C208.933 186.519 203.397 195.478 195.307 203.045C186.616 211.174 178.606 215.092 170.68 215.092H165.315L166.361 208.899C166.937 205.494 167.067 202.707 166.651 202.707C166.234 202.707 164.477 205.108 162.745 208.042C158.794 214.739 148.456 222.324 140.278 224.526C136.716 225.485 130.426 225.759 125.663 225.165L117.302 224.12L120.472 220.745C123.294 217.74 128.434 207.519 128.434 204.909C128.434 204.362 125.332 208.13 121.539 213.28C113.638 224.015 109.309 225.905 92.6165 225.919C83.5805 225.927 81.4411 225.321 74.8743 220.897C66.8166 215.469 62.0053 208.582 60.1027 199.758C59.1197 195.199 58.9835 195.798 59.3504 203.073C59.7281 210.59 59.3565 212.093 56.9276 212.864C46.0618 216.312 32.4544 201.542 32.4544 186.299C32.4544 181.666 33.6929 179.389 39.2163 173.864C42.9363 170.145 46.7012 167.102 47.5836 167.102C48.4675 167.102 51.0357 170.252 53.2913 174.102C55.5483 177.954 60.2204 182.974 63.6756 185.261C68.9916 188.778 71.5335 189.394 80.2305 189.273C86.7308 189.183 93.759 187.894 99.3598 185.764L108.213 182.395L114.966 186.354C118.68 188.53 125.096 190.773 129.226 191.34C133.355 191.905 139.569 193.99 143.034 195.972C154.952 202.788 170.148 200.077 181.641 189.086C187.647 183.34 194.957 170.238 194.985 165.167C195.006 161.343 196.898 161.794 201.488 166.715ZM201.192 220.795C201.192 221.378 200.033 225.985 198.617 231.035C195.592 241.817 192.61 244.169 174.876 249.765C156.994 255.408 138.064 257.634 109.083 257.504C81.0417 257.378 59.9371 254.2 47.1672 248.177C41.605 245.554 40.718 244.324 38.3897 235.981C34.2688 221.227 34.4143 220.651 41.3558 224.137C64.3707 235.695 115.71 240.413 151.769 234.284C166.019 231.862 191.915 224.36 196.548 221.312C199.273 219.518 201.192 219.306 201.192 220.795ZM69.2858 267.137C85.3004 270.439 91.7806 271.059 104.129 270.466C115.165 269.936 118.837 270.201 117.599 271.441C114.777 274.266 90.1009 274.413 74.3711 271.699C62.3288 269.62 44.102 263.668 48.387 263.211C49.0604 263.14 58.4649 264.907 69.2858 267.137ZM187.26 267.814C187.26 268.715 186.486 272.525 185.54 276.282C183.949 282.599 183.223 283.336 175.865 286.089C141.938 298.778 99.4233 299.349 64.1896 287.589C59.081 285.883 53.686 283.398 52.2014 282.067C49.918 280.02 45.746 269.38 46.8157 268.337C47.0062 268.153 52.0373 269.622 57.9974 271.603C86.8701 281.2 146.094 280.458 174.767 270.141C186.876 265.784 187.26 265.713 187.26 267.814Z" fill-opacity="0.3"/>
  </symbol>
</defs>
<title>Bakcground</title>
  <!-- <use x="0" y="100"  href="#ice-cream" transform="rotate(340 50 50)"/>
  <use x="50" y="50"  href="#ice-cream" transform="scale(0.6)"/>
  <use x="0" y="0"  href="#soda" transform="rotate(350 0 30)"/>
  <use x="60" y="0"  href="#cono"/>
  <use x="85" y="55"  href="#cono" transform="rotate(-30 140 0) scale(0.6)"/> -->
  <use x="10" y="0"  href="#soda"/>
  <use x="50%" y="50%"  href="#soda" transform="scale(0.5)"/>
  <use x="0" y="50%"  href="#ice-cream" transform="rotate(340 50 50)"/>
  <use x="70%" y="10%"  href="#cono"/>
  <use x="100%" y="100%"  href="#ice-cream" transform="scale(0.5)"/>
  <use x="85%" y="25%"  href="#cono" transform="scale(0.5)"/>
</svg>